<?xml version="1.0" encoding="utf-8"?>
<!-- Generator: Adobe Illustrator 22.1.0, SVG Export Plug-In . SVG Version: 6.00 Build 0)  -->
<svg version="1.1" xmlns="http://www.w3.org/2000/svg" xmlns:xlink="http://www.w3.org/1999/xlink" x="0px" y="0px"
	 viewBox="0 0 180 60" style="enable-background:new 0 0 180 60;" xml:space="preserve">
<style type="text/css">
	.st0{display:none;}
	.st1{display:none;fill:#FFFFFF;stroke:#000000;stroke-width:4;stroke-miterlimit:10;}
	.st2{display:none;fill:#D2B42B;}
	.st3{display:none;fill:none;}
	.st4{fill:#00153C;}
	.st5{fill:none;stroke:#00153C;stroke-width:4;stroke-miterlimit:10;}
	.st6{fill:#D2B42B;}
	.st7{fill:none;stroke:#D2B42B;stroke-width:13;stroke-miterlimit:10;}
	.st8{fill:#0A163E;}
	.st9{fill:none;stroke:#FEEE00;stroke-width:10;stroke-miterlimit:10;}
	.st10{fill:none;}
	.st11{fill:none;stroke:#00153C;stroke-width:1.0508;stroke-miterlimit:10;}
	.st12{fill:none;stroke:#D2B42B;stroke-width:3.4151;stroke-miterlimit:10;}
	.st13{fill:none;stroke:#FEEE00;stroke-width:2.627;stroke-miterlimit:10;}
	.st14{fill:none;stroke:#00153C;stroke-width:0.3847;stroke-miterlimit:10;}
	.st15{fill:none;stroke:#D2B42B;stroke-width:1.2504;stroke-miterlimit:10;}
	.st16{fill:none;stroke:#FEEE00;stroke-width:0.9618;stroke-miterlimit:10;}
	.st17{fill:#9C9BA0;}
	.st18{font-family:'MyriadPro-Regular';}
	.st19{font-size:0.7927px;}
</style>
<g id="Camada_1" class="st0">
	
		<image style="display:inline;overflow:visible;" width="1280" height="720" xlink:href="DB206D51.jpg"  transform="matrix(1 0 0 1 -2875 -347.9868)">
	</image>
</g>
<g id="Camada_2">
	<g id="Camada_3">
	</g>
	<circle class="st1" cx="-2414.3" cy="-7.4" r="99.7"/>
	<rect x="-2447.2" y="-95.9" class="st2" width="35.9" height="46.9"/>
	<rect x="-2823.4" y="-128.6" class="st3" width="150.9" height="147"/>
	<g>
		<rect x="-2884.6" y="195.1" class="st4" width="66" height="37.4"/>
		<rect x="-3164.9" y="195.3" class="st4" width="66" height="37.4"/>
		<rect x="-3192.2" y="172.7" class="st4" width="395.9" height="22.6"/>
		<ellipse class="st4" cx="-2903.8" cy="-66" rx="32.4" ry="32.8"/>
		<polygon class="st4" points="-2946.9,20.3 -2945.5,-19.7 -2917.3,-24.6 -2905.2,-9.2 -2891.8,-24.6 -2868.6,-24.6 -2863.3,20.3 		
			"/>
		<polygon class="st4" points="-3050.3,20.3 -3070.7,-7.1 -3101.3,-7.1 -3123.8,20.3 -3111.4,20.3 -3102.8,9.1 -3101.4,9.1 
			-3101.3,20.3 -3072.7,20.3 -3072.6,6.6 -3071.4,6.6 -3062.5,20.3 		"/>
		<circle class="st5" cx="-3086.6" cy="-39.4" r="23.7"/>
		<path class="st4" d="M-3064.6-37.8h-18.7v-8.9h-2.7l-5.4,8.9h-3.9v-5l-1.4-0.2l-2.7-0.1l-5,6h-7.4c0,0,4.4-24,26.4-26
			c21.9-1.9,25,22.4,20.8,24.5"/>
		<path class="st4" d="M-3061.3-42.1c0,0.1,4.8,2.8,5.1,3c3,2.1,6.1,4.6,7.9,7.9c1.5,2.7,1.5,6.3,0.3,9.2c-0.6,1.5-1.6,2.9-2.9,3.8
			c-0.8,0.6-1.2,1.1-1.9,0.2c-0.6-0.8-0.5-2.1-0.9-3.1c-0.6-1.4-1.2-2.8-1.9-4.1c-1.7-3.6-4.1-7-7.3-9.4
			C-3062.9-34.5-3061.3-42.1-3061.3-42.1z"/>
		<path class="st4" d="M-3110.4-43.5c0,0.1-4.8,2.8-5.1,3c-3,2.1-6.1,4.6-7.9,7.9c-1.5,2.7-1.5,6.3-0.3,9.2c0.6,1.5,1.6,2.9,2.9,3.8
			c0.8,0.6,1.2,1.1,1.9,0.2c0.6-0.8,0.5-2.1,0.9-3.1c0.6-1.4,1.2-2.8,1.9-4.1c1.7-3.6,4.1-7,7.3-9.4
			C-3108.9-35.9-3110.4-43.5-3110.4-43.5z"/>
		<path class="st6" d="M-2796.6-190.8c0-1.5-8.4-5.5-9.4-6.1c-9.7-5.6-20-10.1-30.4-13.9c-17.7-6.6-36-11.4-54.4-15
			c-49.2-9.7-99.1-10.7-149-10.6c-44.5,0-90.3,9-129.8,30c-1.2,0.6-2.4,1.3-3.6,2c-4,2.2-7.9,4.6-11.7,7c-1.6,1-8.5,4.2-8.5,6.2
			c0,0,1.4,345.4,1.4,345.4h395.9C-2796.3,154.3-2796.6-190.7-2796.6-190.8z M-2860.5-195.8c9.4,0,17,7.6,17,17s-7.6,17-17,17
			s-17-7.6-17-17S-2869.9-195.8-2860.5-195.8z M-2830.9-129.2V20.3h-153.3v-149.4H-2830.9z M-3091.4-191.5h193.5v23.7h-193.5V-191.5
			z M-3128.8-195.8c9.4,0,17,7.6,17,17s-7.6,17-17,17c-9.4,0-17-7.6-17-17S-3138.1-195.8-3128.8-195.8z M-3162.6-129.2h153.3V20.3
			h-153.3V-129.2z M-3131.9,122.7c-18.2,0-33-15.3-33-34.3c0-18.9,14.8-34.3,33-34.3s33,15.3,33,34.3
			C-3098.9,107.4-3113.7,122.7-3131.9,122.7z M-2917.1,138h-153.2v-18.8h153.2V138z M-2917.1,104.8h-153.2V86h153.2V104.8z
			 M-2917.1,70.1h-153.2V51.3h153.2V70.1z M-2851.6,122.7c-18.2,0-33-15.3-33-34.3c0-18.9,14.8-34.3,33-34.3c18.2,0,33,15.3,33,34.3
			C-2818.5,107.4-2833.3,122.7-2851.6,122.7z"/>
		<rect x="-3266.6" y="-125.6" class="st7" width="68.9" height="263.6"/>
		<rect x="-3245.5" y="-95.9" class="st6" width="41.5" height="56"/>
		<rect x="-2785.9" y="-95.9" class="st6" width="41.5" height="56"/>
		<polygon class="st4" points="-3336.8,237.3 -3336.8,234.2 -3342,234.2 -3338.1,201.8 -3342.9,168.2 -3365.5,168.2 -3355.5,202.7 
			-3362.8,233.9 -3362.8,237.3 		"/>
		<polygon class="st4" points="-3359.2,136.7 -3359.2,109.5 -3349.4,109.5 -3349.4,126.7 -3342.8,130.7 -3342.8,99.5 -3369.2,99.5 
			-3369.2,165.5 -3342.8,165.5 -3342.8,145.6 		"/>
		<path class="st4" d="M-3369.1,156.7l-4.8-1.2v3.8l-29.8,3.7c0,0,0.5-53.5,4-55.2c0,0-0.6-4.6,20.9-8.3l0.2-5.1h2.3l0.2,5.1h2.2
			l0.2,1.3l4.9-0.2v7.5h-4.9l0.3,39.3l4.8,1.9L-3369.1,156.7z"/>
		<circle class="st4" cx="-3349.3" cy="77.9" r="16.3"/>
		<polygon class="st4" points="-3226.8,235.6 -3226.8,231.2 -3234,231.2 -3228.6,186 -3235.3,139.1 -3266.8,139.1 -3252.9,187.3 
			-3263.1,230.8 -3263.1,235.6 		"/>
		<polygon class="st4" points="-3258.1,95.2 -3258.1,57.2 -3244.3,57.2 -3244.3,81.2 -3235.2,86.7 -3235.2,43.2 -3272,43.2 
			-3272,135.3 -3235.2,135.3 -3235.2,107.6 		"/>
		<path class="st4" d="M-3272,123.1l-6.8-1.7v5.4l-41.6,5.1c0,0,0.8-74.6,5.5-77c0,0-0.9-6.4,29.1-11.6l0.2-7.1h3.3l0.2,7.1h3
			l0.2,1.8l6.8-0.2v10.4h-6.9l0.4,54.9l6.7,2.6L-3272,123.1z"/>
		<circle class="st4" cx="-3244.2" cy="13.1" r="22.8"/>
		<g>
			<path class="st8" d="M-2528.8-101.7c-13.9,13.7-31.9,20.1-51.4,20.1c-50.3,0-71.5-34.6-71.7-69.8c-0.2-35.4,22.8-71.3,71.7-71.3
				c18.4,0,35.8,7,49.7,20.7l-17,16.4c-8.9-8.7-20.9-12.8-32.7-12.8c-32.7,0-46.8,24.4-46.6,47c0.2,22.4,13.1,45.8,46.6,45.8
				c11.8,0,25.1-4.8,34-13.7L-2528.8-101.7z"/>
			<path class="st8" d="M-2406-110.2h-70.7l-11.6,25.5h-27.6l60.7-135.3h27.8l60.7,135.3h-27.8L-2406-110.2z M-2441.4-191.6
				l-25.1,57.6h50.3L-2441.4-191.6z"/>
			<path class="st8" d="M-2217-84.7h-30.3l-39.4-45.2h-24.5v45.2h-25.5v-135.5c21.5,0,42.9,0.2,64.4,0.2
				c31.9,0.2,48.7,21.5,48.7,44.8c0,18.6-8.5,37.3-34.2,42.5l41,46.2V-84.7z M-2311.3-196.2v43.3h38.8c16.2,0,23.2-10.8,23.2-21.6
				c0-10.8-7.2-21.6-23.2-21.6H-2311.3z"/>
			<path class="st8" d="M-2162.7-220v111.7h69.6v23.6h-95.1V-220H-2162.7z"/>
			<path class="st8" d="M-2056.6-84.7V-220h25.3v135.3H-2056.6z"/>
			<path class="st8" d="M-1900-220.2h25.5v135.5h-15.8v0.2l-71.1-91.4v91.2h-25.5V-220h20.7l66.3,83.9V-220.2z"/>
			<path class="st8" d="M-1713.7-153.5c0.6,34.2-20.3,68.8-67.6,68.8c-16.6,0-36.5,0-53.2,0V-220c16.6,0,36.5,0,53.2,0
				C-1735-220-1714.3-186.9-1713.7-153.5z M-1809.2-109.2h27.8c30.7,0,42.9-22.4,42.3-44.5c-0.6-21.1-12.9-42.1-42.3-42.1h-27.8
				V-109.2z"/>
			<path class="st8" d="M-1543.6-151.6c-0.4,35-21.8,70-69.4,70c-47.5,0-69.6-34.2-69.6-69.8s22.8-71.3,69.6-71.3
				C-1566.4-222.7-1543.2-186.9-1543.6-151.6z M-1657.5-151c0.6,22.2,12.6,46,44.5,46c31.9,0,43.9-24,44.3-46.2
				c0.4-22.8-12.4-48.3-44.3-48.3C-1644.9-199.5-1658.1-173.8-1657.5-151z"/>
		</g>
		<g>
			<path class="st4" d="M-2550.9,13.1c-8.7-8.3-21.6-12.9-32.8-12.9c-27.7,0-44.4,21-44.4,47.6c0,21.2,12.4,43.1,44.4,43.1
				c10.1,0,19-2.2,29.1-10.3V57.7h-33V36h55.3v54.4c-12.7,14.6-28.8,23.2-51.4,23.2c-48.5,0-68.2-31.9-68.2-65.8
				c0-36.3,22.7-69.9,68.2-69.9c17.3,0,34.7,6.6,47.9,19.7L-2550.9,13.1z"/>
			<path class="st4" d="M-2399.2-18.2v73.9c0,38.2-23.4,57.7-55.9,57.7c-31,0-57.3-18.8-57.3-57.7v-73.9h24.2v73.9
				c0,23.2,13.3,35.6,33.4,35.6c20.1,0,31.5-13.5,31.5-35.6v-73.9H-2399.2z"/>
			<path class="st4" d="M-2375.2,110.7V-18.4h24.2v129.1H-2375.2z"/>
			<path class="st4" d="M-2215.7,17.2l-42,56.1h-4.8l-41.1-56.2v93.9h-24.3V-18.2h28l40.4,55.5l40.4-55.5h27.8v129.1h-24.3V17.2z"/>
			<path class="st4" d="M-2076.9,86.3h-67.5l-11.1,24.3h-26.4l57.9-129.1h26.6l57.9,129.1h-26.6L-2076.9,86.3z M-2110.6,8.7
				l-24,54.9h47.9L-2110.6,8.7z"/>
			<path class="st4" d="M-1914.1,110.7h-28.9l-37.6-43.1h-23.4v43.1h-24.3V-18.6c20.5,0,40.9,0.2,61.4,0.2
				c30.4,0.2,46.5,20.5,46.5,42.8c0,17.7-8.1,35.6-32.6,40.6l39.1,44.1V110.7z M-2004,4.3v41.3h37.1c15.5,0,22.1-10.3,22.1-20.7
				c0-10.3-6.8-20.7-22.1-20.7H-2004z"/>
			<path class="st4" d="M-1812.5,86.3h-67.5l-11.1,24.3h-26.4l57.9-129.1h26.6l57.9,129.1h-26.6L-1812.5,86.3z M-1879.6-37.8
				c4.4-11.1,11.8-19,24.3-16.2c8.9,2,17.5,12,23.4,0.2l15.1,7.2c-5.5,14.6-14.9,19-23.8,16.6c-9.4-2.6-17.5-13.8-24.9,0
				L-1879.6-37.8z M-1846.2,8.7l-24,54.9h47.9L-1846.2,8.7z"/>
			<path class="st4" d="M-1669.7,110.7h-96.6c0-43,0-86.1,0-129.1h96.6V5.2h-72.5v29.7h69.9v22.7h-69.9v29.1h72.5V110.7z"/>
			<path class="st4" d="M-1567.4,12.8c-4.4-7.4-16.6-14.4-30.6-14.4c-18.1,0-26.7,7.6-26.7,17.1c0,11.2,13.3,14.4,28.8,16.2
				c26.9,3.3,52,10.3,52,41.1c0,28.8-25.4,41.1-54.2,41.1c-26.4,0-46.6-8.1-56.2-31.7l20.3-10.5c5.7,14.2,20.7,20.5,36.3,20.5
				c15.3,0,29.7-5.3,29.7-19.4c0-12.2-12.7-17.1-29.9-19c-26.4-3.1-50.7-10.1-50.7-39.1c0-26.6,26.2-37.4,50-37.6
				c20.1,0,40.9,5.7,50.7,25.6L-1567.4,12.8z"/>
		</g>
		<g>
			<path class="st4" d="M-2591.6,178.9h31.4v5.4h-25.9v17.2h25.7v5.4h-25.7v21.5h25.7v5.4h-31.2V178.9z"/>
			<path class="st4" d="M-2521.7,197.6l-3.4,3.5c-2.8-2.7-5.5-4.1-8.2-4.1c-1.7,0-3.1,0.6-4.3,1.7c-1.2,1.1-1.8,2.4-1.8,3.9
				c0,1.3,0.5,2.6,1.5,3.8c1,1.2,3.1,2.6,6.3,4.3c3.9,2,6.5,3.9,7.9,5.8c1.4,1.9,2.1,4,2.1,6.4c0,3.3-1.2,6.1-3.5,8.5
				c-2.3,2.3-5.3,3.5-8.8,3.5c-2.3,0-4.6-0.5-6.7-1.5s-3.9-2.4-5.3-4.2l3.3-3.7c2.7,3,5.5,4.5,8.5,4.5c2.1,0,3.9-0.7,5.3-2
				c1.5-1.3,2.2-2.9,2.2-4.7c0-1.5-0.5-2.8-1.5-4c-1-1.1-3.2-2.6-6.6-4.3c-3.7-1.9-6.1-3.7-7.5-5.6c-1.3-1.8-2-3.9-2-6.3
				c0-3.1,1-5.6,3.2-7.7c2.1-2,4.8-3.1,8-3.1C-2529.2,192.2-2525.5,194-2521.7,197.6z"/>
			<path class="st4" d="M-2463.6,201.6l-4.1,2.6c-3.6-4.7-8.4-7.1-14.6-7.1c-4.9,0-9,1.6-12.3,4.8s-4.9,7-4.9,11.6
				c0,3,0.8,5.7,2.3,8.3c1.5,2.6,3.6,4.6,6.2,6.1s5.5,2.2,8.8,2.2c6,0,10.8-2.4,14.6-7.1l4.1,2.7c-1.9,2.9-4.5,5.2-7.8,6.8
				s-7,2.4-11.2,2.4c-6.4,0-11.7-2-15.9-6.1c-4.2-4.1-6.3-9-6.3-14.9c0-3.9,1-7.6,3-10.9c2-3.4,4.7-6,8.1-7.9
				c3.5-1.9,7.3-2.8,11.6-2.8c2.7,0,5.3,0.4,7.8,1.2s4.6,1.9,6.3,3.2C-2466.3,197.9-2464.8,199.6-2463.6,201.6z"/>
			<path class="st4" d="M-2424.9,192.2c6.2,0,11.4,2.3,15.5,6.8c3.7,4.1,5.6,9,5.6,14.6c0,5.7-2,10.6-5.9,14.8
				c-3.9,4.2-9,6.3-15.2,6.3c-6.2,0-11.3-2.1-15.2-6.3c-3.9-4.2-5.9-9.2-5.9-14.8c0-5.6,1.9-10.5,5.6-14.6
				C-2436.3,194.4-2431.1,192.2-2424.9,192.2z M-2424.9,197.3c-4.3,0-8.1,1.6-11.2,4.8c-3.1,3.2-4.7,7.1-4.7,11.6
				c0,2.9,0.7,5.7,2.1,8.2c1.4,2.5,3.3,4.5,5.8,5.9c2.4,1.4,5.1,2.1,8,2.1c2.9,0,5.5-0.7,8-2.1c2.4-1.4,4.3-3.3,5.8-5.9
				c1.4-2.5,2.1-5.3,2.1-8.2c0-4.5-1.6-8.4-4.7-11.6C-2416.9,198.9-2420.6,197.3-2424.9,197.3z"/>
			<path class="st4" d="M-2385.4,177.6h5.2v56.2h-5.2V177.6z"/>
			<path class="st4" d="M-2319.4,193.2v40.5h-5.1v-7c-2.2,2.7-4.6,4.7-7.4,6c-2.7,1.3-5.7,2-8.9,2c-5.7,0-10.6-2.1-14.7-6.2
				c-4.1-4.2-6.1-9.2-6.1-15.2c0-5.8,2-10.8,6.1-15c4.1-4.1,9-6.2,14.8-6.2c3.3,0,6.3,0.7,9,2.1c2.7,1.4,5.1,3.5,7.1,6.4v-7.4
				H-2319.4z M-2340.2,197.2c-2.9,0-5.6,0.7-8,2.1c-2.5,1.4-4.4,3.4-5.9,6c-1.5,2.6-2.2,5.3-2.2,8.2c0,2.9,0.7,5.6,2.2,8.2
				c1.5,2.6,3.4,4.6,5.9,6.1c2.5,1.5,5.1,2.2,7.9,2.2c2.9,0,5.6-0.7,8.1-2.2c2.6-1.4,4.5-3.4,5.9-5.8c1.4-2.5,2.1-5.2,2.1-8.3
				c0-4.7-1.5-8.6-4.6-11.8C-2331.9,198.8-2335.7,197.2-2340.2,197.2z"/>
			<path class="st4" d="M-2300.1,193.2h5.3v5.9c1.6-2.3,3.3-4.1,5-5.2s3.6-1.7,5.5-1.7c1.4,0,3,0.5,4.6,1.4l-2.7,4.4
				c-1.1-0.5-2-0.7-2.8-0.7c-1.7,0-3.4,0.7-5,2.1c-1.6,1.4-2.8,3.6-3.7,6.6c-0.6,2.3-1,7-1,14v13.7h-5.3V193.2z"/>
			<path class="st4" d="M-2200.9,220.3l4.4,2.3c-1.4,2.8-3.1,5.1-5,6.9c-1.9,1.7-4,3.1-6.4,4c-2.4,0.9-5,1.4-8,1.4
				c-6.6,0-11.8-2.2-15.5-6.5c-3.7-4.3-5.6-9.2-5.6-14.7c0-5.1,1.6-9.7,4.7-13.7c4-5.1,9.4-7.7,16.1-7.7c6.9,0,12.4,2.6,16.5,7.9
				c2.9,3.7,4.4,8.3,4.5,13.9h-36.5c0.1,4.7,1.6,8.6,4.5,11.6s6.5,4.5,10.8,4.5c2.1,0,4.1-0.4,6-1.1c2-0.7,3.6-1.7,5-2.9
				C-2204,224.8-2202.5,222.9-2200.9,220.3z M-2200.9,209.4c-0.7-2.8-1.7-5-3-6.7s-3.1-3-5.3-4c-2.2-1-4.5-1.5-6.9-1.5
				c-4,0-7.4,1.3-10.3,3.8c-2.1,1.9-3.7,4.7-4.7,8.4H-2200.9z"/>
			<path class="st4" d="M-2144.2,178.9h5.5V212c0,3.9,0.1,6.4,0.2,7.3c0.3,2.2,0.9,4,1.9,5.4c1,1.5,2.5,2.7,4.6,3.6
				c2.1,1,4.1,1.5,6.2,1.5c1.8,0,3.5-0.4,5.2-1.2s3.1-1.8,4.2-3.2s1.9-3,2.5-5c0.4-1.4,0.6-4.2,0.6-8.6v-33.1h5.5V212
				c0,4.9-0.5,8.8-1.4,11.9c-1,3-2.9,5.6-5.7,7.9s-6.3,3.4-10.4,3.4c-4.4,0-8.2-1.1-11.4-3.2c-3.2-2.1-5.3-4.9-6.3-8.4
				c-0.7-2.1-1-6-1-11.5V178.9z"/>
			<path class="st4" d="M-2085.8,193.2h5.2v7.3c2.1-2.8,4.4-4.9,6.9-6.2c2.5-1.4,5.3-2.1,8.3-2.1c3,0,5.7,0.8,8.1,2.3
				c2.3,1.5,4.1,3.6,5.2,6.2c1.1,2.6,1.7,6.7,1.7,12.2v20.9h-5.2v-19.3c0-4.7-0.2-7.8-0.6-9.3c-0.6-2.7-1.8-4.7-3.5-6.1
				c-1.7-1.4-3.9-2-6.7-2c-3.2,0-6,1-8.5,3.1c-2.5,2.1-4.1,4.7-4.9,7.7c-0.5,2-0.7,5.7-0.7,11v14.9h-5.2V193.2z"/>
			<path class="st4" d="M-2028,176.5c1.2,0,2.2,0.4,3,1.3c0.8,0.8,1.3,1.9,1.3,3.1c0,1.2-0.4,2.2-1.3,3c-0.8,0.8-1.9,1.3-3,1.3
				c-1.2,0-2.2-0.4-3-1.3c-0.8-0.8-1.3-1.8-1.3-3c0-1.2,0.4-2.2,1.3-3.1C-2030.1,176.9-2029.1,176.5-2028,176.5z M-2030.5,193.2h5.2
				v40.5h-5.2V193.2z"/>
			<path class="st4" d="M-2008.8,193.2h5.5l13.6,29.5l13.4-29.5h5.6l-18.5,40.5h-1L-2008.8,193.2z"/>
			<path class="st4" d="M-1919,220.3l4.4,2.3c-1.4,2.8-3.1,5.1-5,6.9c-1.9,1.7-4,3.1-6.4,4c-2.4,0.9-5,1.4-8,1.4
				c-6.6,0-11.8-2.2-15.5-6.5c-3.7-4.3-5.6-9.2-5.6-14.7c0-5.1,1.6-9.7,4.7-13.7c4-5.1,9.4-7.7,16.1-7.7c6.9,0,12.4,2.6,16.5,7.9
				c2.9,3.7,4.4,8.3,4.5,13.9h-36.5c0.1,4.7,1.6,8.6,4.5,11.6s6.5,4.5,10.8,4.5c2.1,0,4.1-0.4,6-1.1c2-0.7,3.6-1.7,5-2.9
				C-1922.1,224.8-1920.6,222.9-1919,220.3z M-1919,209.4c-0.7-2.8-1.7-5-3-6.7s-3.1-3-5.3-4c-2.2-1-4.5-1.5-6.9-1.5
				c-4,0-7.4,1.3-10.3,3.8c-2.1,1.9-3.7,4.7-4.7,8.4H-1919z"/>
			<path class="st4" d="M-1896,193.2h5.3v5.9c1.6-2.3,3.3-4.1,5-5.2s3.6-1.7,5.5-1.7c1.4,0,3,0.5,4.6,1.4l-2.7,4.4
				c-1.1-0.5-2-0.7-2.8-0.7c-1.7,0-3.4,0.7-5,2.1c-1.6,1.4-2.8,3.6-3.7,6.6c-0.6,2.3-1,7-1,14v13.7h-5.3V193.2z"/>
			<path class="st4" d="M-1841.2,197.6l-3.4,3.5c-2.8-2.7-5.5-4.1-8.2-4.1c-1.7,0-3.1,0.6-4.3,1.7c-1.2,1.1-1.8,2.4-1.8,3.9
				c0,1.3,0.5,2.6,1.5,3.8c1,1.2,3.1,2.6,6.3,4.3c3.9,2,6.5,3.9,7.9,5.8c1.4,1.9,2.1,4,2.1,6.4c0,3.3-1.2,6.1-3.5,8.5
				c-2.3,2.3-5.3,3.5-8.8,3.5c-2.3,0-4.6-0.5-6.7-1.5s-3.9-2.4-5.3-4.2l3.3-3.7c2.7,3,5.5,4.5,8.5,4.5c2.1,0,3.9-0.7,5.3-2
				c1.5-1.3,2.2-2.9,2.2-4.7c0-1.5-0.5-2.8-1.5-4c-1-1.1-3.2-2.6-6.6-4.3c-3.7-1.9-6.1-3.7-7.5-5.6c-1.3-1.8-2-3.9-2-6.3
				c0-3.1,1-5.6,3.2-7.7c2.1-2,4.8-3.1,8-3.1C-1848.7,192.2-1845,194-1841.2,197.6z"/>
			<path class="st4" d="M-1820.6,176.5c1.2,0,2.2,0.4,3,1.3c0.8,0.8,1.3,1.9,1.3,3.1c0,1.2-0.4,2.2-1.3,3c-0.8,0.8-1.9,1.3-3,1.3
				c-1.2,0-2.2-0.4-3-1.3c-0.8-0.8-1.3-1.8-1.3-3c0-1.2,0.4-2.2,1.3-3.1C-1822.8,176.9-1821.8,176.5-1820.6,176.5z M-1823.2,193.2
				h5.2v40.5h-5.2V193.2z"/>
			<path class="st4" d="M-1793.1,178.2h5.2v15h8.3v4.5h-8.3v36h-5.2v-36h-7.1v-4.5h7.1V178.2z"/>
			<path class="st4" d="M-1721.9,193.2v40.5h-5.1v-7c-2.2,2.7-4.6,4.7-7.4,6c-2.7,1.3-5.7,2-8.9,2c-5.7,0-10.6-2.1-14.7-6.2
				c-4.1-4.2-6.1-9.2-6.1-15.2c0-5.8,2-10.8,6.1-15c4.1-4.1,9-6.2,14.8-6.2c3.3,0,6.3,0.7,9,2.1c2.7,1.4,5.1,3.5,7.1,6.4v-7.4
				H-1721.9z M-1742.7,197.2c-2.9,0-5.6,0.7-8,2.1c-2.5,1.4-4.4,3.4-5.9,6c-1.5,2.6-2.2,5.3-2.2,8.2c0,2.9,0.7,5.6,2.2,8.2
				c1.5,2.6,3.4,4.6,5.9,6.1c2.5,1.5,5.1,2.2,7.9,2.2c2.9,0,5.6-0.7,8.1-2.2c2.6-1.4,4.5-3.4,5.9-5.8c1.4-2.5,2.1-5.2,2.1-8.3
				c0-4.7-1.5-8.6-4.6-11.8C-1734.4,198.8-1738.2,197.2-1742.7,197.2z M-1739.5,174.2h8l-11,11.5h-5.1L-1739.5,174.2z"/>
			<path class="st4" d="M-1702.6,193.2h5.3v5.9c1.6-2.3,3.3-4.1,5-5.2s3.6-1.7,5.5-1.7c1.4,0,3,0.5,4.6,1.4l-2.7,4.4
				c-1.1-0.5-2-0.7-2.8-0.7c-1.7,0-3.4,0.7-5,2.1c-1.6,1.4-2.8,3.6-3.7,6.6c-0.6,2.3-1,7-1,14v13.7h-5.3V193.2z"/>
			<path class="st4" d="M-1666.4,176.5c1.2,0,2.2,0.4,3,1.3c0.8,0.8,1.3,1.9,1.3,3.1c0,1.2-0.4,2.2-1.3,3c-0.8,0.8-1.9,1.3-3,1.3
				c-1.2,0-2.2-0.4-3-1.3c-0.8-0.8-1.3-1.8-1.3-3c0-1.2,0.4-2.2,1.3-3.1C-1668.5,176.9-1667.5,176.5-1666.4,176.5z M-1668.9,193.2
				h5.2v40.5h-5.2V193.2z"/>
			<path class="st4" d="M-1624.2,192.2c6.2,0,11.4,2.3,15.5,6.8c3.7,4.1,5.6,9,5.6,14.6c0,5.7-2,10.6-5.9,14.8
				c-3.9,4.2-9,6.3-15.2,6.3c-6.2,0-11.3-2.1-15.2-6.3c-3.9-4.2-5.9-9.2-5.9-14.8c0-5.6,1.9-10.5,5.6-14.6
				C-1635.6,194.4-1630.4,192.2-1624.2,192.2z M-1624.2,197.3c-4.3,0-8.1,1.6-11.2,4.8c-3.1,3.2-4.7,7.1-4.7,11.6
				c0,2.9,0.7,5.7,2.1,8.2c1.4,2.5,3.3,4.5,5.8,5.9c2.4,1.4,5.1,2.1,8,2.1c2.9,0,5.5-0.7,8-2.1c2.4-1.4,4.3-3.3,5.8-5.9
				c1.4-2.5,2.1-5.3,2.1-8.2c0-4.5-1.6-8.4-4.7-11.6C-1616.2,198.9-1619.9,197.3-1624.2,197.3z"/>
		</g>
		<line class="st9" x1="-2636.6" y1="151.8" x2="-1551.4" y2="151.8"/>
		<text transform="matrix(1 0 0 1 -3091.3965 -187.8584)" class="st17 st18" style="font-size:8.3032px;">.............................................................................</text>
		<text transform="matrix(1 0 0 1 -3091.3965 -189.2744)" class="st17 st18" style="font-size:8.3032px;">.............................................................................</text>
		<text transform="matrix(1 0 0 1 -3091.3965 -190.4629)" class="st17 st18" style="font-size:8.3032px;">.............................................................................</text>
		<text transform="matrix(1 0 0 1 -3091.3965 -186.2588)" class="st17 st18" style="font-size:8.3032px;">.............................................................................</text>
		<text transform="matrix(1 0 0 1 -3091.3965 -184.6572)" class="st17 st18" style="font-size:8.3032px;">.............................................................................</text>
		<text transform="matrix(1 0 0 1 -3091.3965 -183.0576)" class="st17 st18" style="font-size:8.3032px;">.............................................................................</text>
		<text transform="matrix(1 0 0 1 -3091.3965 -181.455)" class="st17 st18" style="font-size:8.3032px;">.............................................................................</text>
		<text transform="matrix(1 0 0 1 -3091.3965 -179.8545)" class="st17 st18" style="font-size:8.3032px;">.............................................................................</text>
		<text transform="matrix(1 0 0 1 -3091.3965 -178.2539)" class="st17 st18" style="font-size:8.3032px;">.............................................................................</text>
		<text transform="matrix(1 0 0 1 -3091.3965 -176.6523)" class="st17 st18" style="font-size:8.3032px;">.............................................................................</text>
		<text transform="matrix(1 0 0 1 -3091.3965 -175.0517)" class="st17 st18" style="font-size:8.3032px;">.............................................................................</text>
		<text transform="matrix(1 0 0 1 -3091.3965 -173.4521)" class="st17 st18" style="font-size:8.3032px;">.............................................................................</text>
		<text transform="matrix(1 0 0 1 -3091.3965 -171.8525)" class="st17 st18" style="font-size:8.3032px;">.............................................................................</text>
		<text transform="matrix(1 0 0 1 -3091.3965 -170.2509)" class="st17 st18" style="font-size:8.3032px;">.............................................................................</text>
		<text transform="matrix(1 0 0 1 -3091.3965 -168.8281)" class="st17 st18" style="font-size:8.3032px;">.............................................................................</text>
		<text transform="matrix(1 0 0 1 -3091.3965 -167.5019)" class="st17 st18" style="font-size:8.3032px;">.............................................................................</text>
		<g>
			<path class="st4" d="M-3075.5-170.2v-18.1h3.8c2.7,0,4.7,0.2,5.9,0.7c1.8,0.6,3.1,1.7,4.1,3.2s1.5,3.3,1.5,5.4
				c0,1.8-0.4,3.4-1.2,4.8c-0.8,1.4-1.8,2.4-3.1,3.1c-1.3,0.7-3,1-5.3,1H-3075.5z M-3073.7-172h2.1c2.5,0,4.2-0.2,5.2-0.5
				c1.4-0.4,2.4-1.2,3.2-2.4c0.8-1.2,1.2-2.6,1.2-4.2c0-1.8-0.4-3.2-1.3-4.5c-0.8-1.2-2-2.1-3.5-2.6c-1.1-0.3-3-0.5-5.6-0.5h-1.3
				V-172z"/>
			<path class="st4" d="M-3054.2-188.4h10.4v1.8h-8.6v5.7h8.5v1.8h-8.5v7.1h8.5v1.8h-10.3V-188.4z"/>
			<path class="st4" d="M-3040.2-173.6l1.5-0.9c1.1,2,2.3,3,3.8,3c0.6,0,1.2-0.1,1.7-0.4c0.5-0.3,0.9-0.7,1.2-1.1
				c0.3-0.5,0.4-1,0.4-1.5c0-0.6-0.2-1.2-0.6-1.8c-0.6-0.8-1.6-1.8-3.1-2.9c-1.5-1.1-2.5-2-2.8-2.5c-0.6-0.9-1-1.8-1-2.8
				c0-0.8,0.2-1.5,0.6-2.2c0.4-0.6,0.9-1.2,1.6-1.5s1.4-0.6,2.2-0.6c0.9,0,1.7,0.2,2.4,0.6c0.7,0.4,1.5,1.2,2.4,2.3l-1.5,1.1
				c-0.7-0.9-1.3-1.5-1.7-1.8c-0.5-0.3-1-0.4-1.6-0.4c-0.7,0-1.3,0.2-1.8,0.7s-0.7,1-0.7,1.6c0,0.4,0.1,0.8,0.2,1.1
				c0.2,0.4,0.5,0.8,0.9,1.2c0.2,0.2,1,0.8,2.3,1.8c1.6,1.2,2.6,2.2,3.2,3.1c0.6,0.9,0.9,1.8,0.9,2.7c0,1.3-0.5,2.5-1.5,3.4
				c-1,1-2.2,1.5-3.6,1.5c-1.1,0-2.1-0.3-3-0.9C-3038.6-171.3-3039.4-172.2-3040.2-173.6z"/>
			<path class="st4" d="M-3023.3-170.2v-18.1h3.8c2.7,0,4.7,0.2,5.9,0.7c1.8,0.6,3.1,1.7,4.1,3.2s1.5,3.3,1.5,5.4
				c0,1.8-0.4,3.4-1.2,4.8c-0.8,1.4-1.8,2.4-3.1,3.1c-1.3,0.7-3,1-5.3,1H-3023.3z M-3021.6-172h2.1c2.5,0,4.2-0.2,5.2-0.5
				c1.4-0.4,2.4-1.2,3.2-2.4c0.8-1.2,1.2-2.6,1.2-4.2c0-1.8-0.4-3.2-1.3-4.5c-0.8-1.2-2-2.1-3.5-2.6c-1.1-0.3-3-0.5-5.6-0.5h-1.3
				V-172z"/>
			<path class="st4" d="M-3002.1-188.4h10.4v1.8h-8.6v5.7h8.5v1.8h-8.5v7.1h8.5v1.8h-10.3V-188.4z"/>
			<path class="st4" d="M-2974.4-188.4h3.6v18.1h-1.8v-16.4h-2.8L-2974.4-188.4z"/>
			<path class="st4" d="M-2957.8-169.8l-1.5-1l4.9-7.4c-0.7,0.2-1.3,0.3-1.9,0.3c-1.4,0-2.7-0.5-3.7-1.6c-1-1-1.5-2.3-1.5-3.8
				c0-1,0.2-2,0.7-2.8c0.5-0.8,1.2-1.5,2.1-2s1.8-0.8,2.9-0.8c1,0,1.9,0.2,2.8,0.7c0.9,0.5,1.5,1.2,2,2c0.5,0.9,0.7,1.8,0.7,2.8
				c0,0.7-0.1,1.5-0.5,2.3s-0.8,1.8-1.6,3L-2957.8-169.8z M-2955.8-179.4c1.1,0,2-0.4,2.7-1.1c0.7-0.7,1.1-1.6,1.1-2.7
				c0-1.1-0.4-2-1.1-2.7s-1.6-1.1-2.7-1.1c-1.1,0-2,0.4-2.7,1.1s-1.1,1.6-1.1,2.7c0,1.1,0.4,2,1.1,2.7S-2956.9-179.4-2955.8-179.4z"
				/>
			<path class="st4" d="M-2941.4-169.8l-1.5-1l4.9-7.4c-0.7,0.2-1.3,0.3-1.9,0.3c-1.4,0-2.7-0.5-3.7-1.6c-1-1-1.5-2.3-1.5-3.8
				c0-1,0.2-2,0.7-2.8c0.5-0.8,1.2-1.5,2.1-2s1.8-0.8,2.9-0.8c1,0,1.9,0.2,2.8,0.7c0.9,0.5,1.5,1.2,2,2c0.5,0.9,0.7,1.8,0.7,2.8
				c0,0.7-0.1,1.5-0.5,2.3s-0.8,1.8-1.6,3L-2941.4-169.8z M-2939.4-179.4c1.1,0,2-0.4,2.7-1.1c0.7-0.7,1.1-1.6,1.1-2.7
				c0-1.1-0.4-2-1.1-2.7s-1.6-1.1-2.7-1.1c-1.1,0-2,0.4-2.7,1.1s-1.1,1.6-1.1,2.7c0,1.1,0.4,2,1.1,2.7S-2940.5-179.4-2939.4-179.4z"
				/>
			<path class="st4" d="M-2928-188.4h11.5l-9.7,18.6l-1.5-0.8l8.4-16.1h-8.7V-188.4z"/>
		</g>
		<text transform="matrix(1 0 0 1 -2899.4033 -190.4599)" class="st17 st18" style="font-size:8.3032px;">.</text>
		<text transform="matrix(1 0 0 1 -2899.4053 -189.2734)" class="st17 st18" style="font-size:8.3032px;">.</text>
		<text transform="matrix(1 0 0 1 -2899.4053 -187.8564)" class="st17 st18" style="font-size:8.3032px;">.</text>
		<text transform="matrix(1 0 0 1 -2899.4053 -186.2539)" class="st17 st18" style="font-size:8.3032px;">.</text>
		<text transform="matrix(1 0 0 1 -2899.4053 -184.6572)" class="st17 st18" style="font-size:8.3032px;">.</text>
		<text transform="matrix(1 0 0 1 -2899.4053 -183.0547)" class="st17 st18" style="font-size:8.3032px;">.</text>
		<text transform="matrix(1 0 0 1 -2899.4053 -181.4541)" class="st17 st18" style="font-size:8.3032px;">.</text>
		<text transform="matrix(1 0 0 1 -2899.4053 -179.8535)" class="st17 st18" style="font-size:8.3032px;">.</text>
		<text transform="matrix(1 0 0 1 -2899.4053 -178.2529)" class="st17 st18" style="font-size:8.3032px;">.</text>
		<text transform="matrix(1 0 0 1 -2899.4053 -176.6504)" class="st17 st18" style="font-size:8.3032px;">.</text>
		<text transform="matrix(1 0 0 1 -2899.4053 -175.0517)" class="st17 st18" style="font-size:8.3032px;">.</text>
		<text transform="matrix(1 0 0 1 -2899.4053 -173.4502)" class="st17 st18" style="font-size:8.3032px;">.</text>
		<text transform="matrix(1 0 0 1 -2899.4053 -171.8486)" class="st17 st18" style="font-size:8.3032px;">.</text>
		<text transform="matrix(1 0 0 1 -2899.4053 -170.248)" class="st17 st18" style="font-size:8.3032px;">.</text>
		<text transform="matrix(1 0 0 1 -2899.4053 -168.6474)" class="st17 st18" style="font-size:8.3032px;">.</text>
		<text transform="matrix(1 0 0 1 -2899.4053 -167.5009)" class="st17 st18" style="font-size:8.3032px;">.</text>
		<rect x="-3070.3" y="-184.7" class="st10" width="153.1" height="18.8"/>
		<polygon class="st10" points="-3259.6,55.6 -3242.9,55.6 -3242.9,80.2 -3207.2,101.9 -3219.2,118 -3259.6,96.1 		"/>
		<polygon class="st4" points="-3256.8,58.7 -3245.8,58.7 -3245.8,82.2 -3211.8,102.7 -3220.2,114.1 -3256.8,94.3 		"/>
		<polygon class="st10" points="-3157.6,50.6 -3140.9,50.6 -3140.9,75.2 -3105.2,96.9 -3117.2,113 -3157.6,91.1 		"/>
		<polygon class="st10" points="-3154.8,53.7 -3143.8,53.7 -3143.8,77.2 -3109.8,97.7 -3118.2,109.1 -3154.8,89.3 		"/>
		<polygon class="st4" points="-3350.9,110.9 -3350.9,127.6 -3326.5,142.3 -3332.1,149.7 -3357.8,135.9 -3357.8,110.9 		"/>
	</g>
	<g>
		<rect x="-554.6" y="93.4" class="st4" width="17.3" height="9.8"/>
		<rect x="-628.3" y="93.5" class="st4" width="17.3" height="9.8"/>
		<rect x="-635.4" y="87.5" class="st4" width="104" height="5.9"/>
		<ellipse class="st4" cx="-559.7" cy="24.8" rx="8.5" ry="8.6"/>
		<polygon class="st4" points="-571,47.5 -570.6,37 -563.2,35.7 -560,39.7 -556.5,35.7 -550.4,35.7 -549,47.5 		"/>
		<polygon class="st4" points="-598.2,47.5 -603.5,40.3 -611.6,40.3 -617.5,47.5 -614.2,47.5 -611.9,44.6 -611.6,44.6 -611.5,47.5 
			-604,47.5 -604,43.9 -603.7,43.9 -601.4,47.5 		"/>
		<circle class="st11" cx="-607.7" cy="31.8" r="6.2"/>
		<path class="st4" d="M-601.9,32.2h-4.9v-2.3h-0.7l-1.4,2.3h-1v-1.3l-0.4-0.1l-0.7,0l-1.3,1.6h-1.9c0,0,1.2-6.3,6.9-6.8
			c5.8-0.5,6.6,5.9,5.5,6.4"/>
		<path class="st4" d="M-601,31.1c0,0,1.3,0.7,1.3,0.8c0.8,0.6,1.6,1.2,2.1,2.1c0.4,0.7,0.4,1.7,0.1,2.4c-0.2,0.4-0.4,0.8-0.8,1
			c-0.2,0.2-0.3,0.3-0.5,0c-0.1-0.2-0.1-0.6-0.2-0.8c-0.1-0.4-0.3-0.7-0.5-1.1c-0.5-0.9-1.1-1.8-1.9-2.5
			C-601.5,33.1-601,31.1-601,31.1z"/>
		<path class="st4" d="M-613.9,30.7c0,0-1.3,0.7-1.3,0.8c-0.8,0.6-1.6,1.2-2.1,2.1c-0.4,0.7-0.4,1.7-0.1,2.4c0.2,0.4,0.4,0.8,0.8,1
			c0.2,0.2,0.3,0.3,0.5,0c0.1-0.2,0.1-0.6,0.2-0.8c0.1-0.4,0.3-0.7,0.5-1.1c0.5-0.9,1.1-1.8,1.9-2.5
			C-613.5,32.7-613.9,30.7-613.9,30.7z"/>
		<path class="st6" d="M-531.5-7.9c0-0.4-2.2-1.4-2.5-1.6c-2.5-1.5-5.2-2.6-8-3.7c-4.6-1.7-9.4-3-14.3-3.9
			c-12.9-2.5-26-2.8-39.1-2.8c-11.7,0-23.7,2.4-34.1,7.9c-0.3,0.2-0.6,0.3-0.9,0.5c-1,0.6-2.1,1.2-3.1,1.9c-0.4,0.3-2.2,1.1-2.2,1.6
			c0,0,0.4,90.7,0.4,90.7h104C-531.4,82.7-531.5-7.9-531.5-7.9z M-548.3-9.3c2.5,0,4.5,2,4.5,4.5s-2,4.5-4.5,4.5s-4.5-2-4.5-4.5
			S-550.8-9.3-548.3-9.3z M-540.5,8.2v39.3h-40.3V8.2H-540.5z M-608.9-8.1h50.8v6.2h-50.8V-8.1z M-618.8-9.3c2.5,0,4.5,2,4.5,4.5
			s-2,4.5-4.5,4.5c-2.5,0-4.5-2-4.5-4.5S-621.2-9.3-618.8-9.3z M-627.7,8.2h40.3v39.3h-40.3V8.2z M-619.6,74.4c-4.8,0-8.7-4-8.7-9
			c0-5,3.9-9,8.7-9s8.7,4,8.7,9C-610.9,70.4-614.8,74.4-619.6,74.4z M-563.2,78.4h-40.2v-4.9h40.2V78.4z M-563.2,69.7h-40.2v-4.9
			h40.2V69.7z M-563.2,60.6h-40.2v-4.9h40.2V60.6z M-545.9,74.4c-4.8,0-8.7-4-8.7-9c0-5,3.9-9,8.7-9s8.7,4,8.7,9
			C-537.3,70.4-541.1,74.4-545.9,74.4z"/>
		<rect x="-655" y="9.2" class="st12" width="18.1" height="69.2"/>
		<rect x="-649.4" y="17" class="st6" width="10.9" height="14.7"/>
		<rect x="-528.7" y="17" class="st6" width="10.9" height="14.7"/>
		<polygon class="st4" points="-673.4,104.5 -673.4,103.7 -674.8,103.7 -673.7,95.2 -675,86.4 -680.9,86.4 -678.3,95.4 
			-680.2,103.6 -680.2,104.5 		"/>
		<polygon class="st4" points="-679.3,78.1 -679.3,70.9 -676.7,70.9 -676.7,75.4 -675,76.5 -675,68.3 -681.9,68.3 -681.9,85.6 
			-675,85.6 -675,80.4 		"/>
		<path class="st4" d="M-681.9,83.3l-1.3-0.3v1l-7.8,1c0,0,0.1-14,1-14.5c0,0-0.2-1.2,5.5-2.2l0-1.3h0.6l0,1.3h0.6l0,0.3l1.3,0v2
			h-1.3l0.1,10.3l1.3,0.5L-681.9,83.3z"/>
		<circle class="st4" cx="-676.7" cy="62.6" r="4.3"/>
		<polygon class="st4" points="-644.5,104.1 -644.5,102.9 -646.4,102.9 -645,91 -646.7,78.7 -655,78.7 -651.4,91.4 -654.1,102.8 
			-654.1,104.1 		"/>
		<polygon class="st4" points="-652.7,67.2 -652.7,57.2 -649.1,57.2 -649.1,63.5 -646.7,65 -646.7,53.5 -656.4,53.5 -656.4,77.7 
			-646.7,77.7 -646.7,70.4 		"/>
		<path class="st4" d="M-656.4,74.5l-1.8-0.4v1.4l-10.9,1.3c0,0,0.2-19.6,1.5-20.2c0,0-0.2-1.7,7.6-3l0.1-1.9h0.9l0.1,1.9h0.8
			l0.1,0.5l1.8-0.1v2.7h-1.8l0.1,14.4l1.8,0.7L-656.4,74.5z"/>
		<circle class="st4" cx="-649.1" cy="45.6" r="6"/>
		<g>
			<path class="st8" d="M-461.1,15.5c-3.7,3.6-8.4,5.3-13.5,5.3c-13.2,0-18.8-9.1-18.8-18.3c-0.1-9.3,6-18.7,18.8-18.7
				c4.8,0,9.4,1.8,13,5.4l-4.5,4.3c-2.3-2.3-5.5-3.4-8.6-3.4c-8.6,0-12.3,6.4-12.2,12.3c0.1,5.9,3.5,12,12.2,12
				c3.1,0,6.6-1.3,8.9-3.6L-461.1,15.5z"/>
			<path class="st8" d="M-428.9,13.2h-18.6l-3,6.7h-7.3l15.9-35.5h7.3l15.9,35.5h-7.3L-428.9,13.2z M-438.2-8.2L-444.8,7h13.2
				L-438.2-8.2z"/>
			<path class="st8" d="M-379.2,19.9h-8L-397.6,8h-6.4v11.9h-6.7v-35.6c5.6,0,11.3,0.1,16.9,0.1c8.4,0.1,12.8,5.6,12.8,11.8
				c0,4.9-2.2,9.8-9,11.2l10.8,12.1V19.9z M-404-9.4V2h10.2c4.3,0,6.1-2.8,6.1-5.7c0-2.8-1.9-5.7-6.1-5.7H-404z"/>
			<path class="st8" d="M-365-15.6v29.3h18.3v6.2h-25v-35.5H-365z"/>
			<path class="st8" d="M-337.1,19.9v-35.5h6.7v35.5H-337.1z"/>
			<path class="st8" d="M-296-15.7h6.7v35.6h-4.2V20l-18.7-24v24h-6.7v-35.5h5.4l17.4,22V-15.7z"/>
			<path class="st8" d="M-247,1.8c0.2,9-5.3,18.1-17.8,18.1c-4.4,0-9.6,0-14,0v-35.5c4.4,0,9.6,0,14,0
				C-252.6-15.6-247.2-6.9-247,1.8z M-272.1,13.5h7.3c8.1,0,11.3-5.9,11.1-11.7c-0.2-5.5-3.4-11.1-11.1-11.1h-7.3V13.5z"/>
			<path class="st8" d="M-202.3,2.4c-0.1,9.2-5.7,18.4-18.2,18.4c-12.5,0-18.3-9-18.3-18.3s6-18.7,18.3-18.7
				C-208.3-16.3-202.2-6.9-202.3,2.4z M-232.3,2.5c0.2,5.8,3.3,12.1,11.7,12.1c8.4,0,11.5-6.3,11.6-12.1c0.1-6-3.2-12.7-11.6-12.7
				C-229-10.2-232.4-3.5-232.3,2.5z"/>
		</g>
		<g>
			<path class="st4" d="M-467,45.6c-2.3-2.2-5.7-3.4-8.6-3.4c-7.3,0-11.7,5.5-11.7,12.5c0,5.6,3.2,11.3,11.7,11.3
				c2.7,0,5-0.6,7.7-2.7v-6h-8.7v-5.7h14.5v14.3c-3.3,3.8-7.6,6.1-13.5,6.1c-12.7,0-17.9-8.4-17.9-17.3c0-9.5,6-18.4,17.9-18.4
				c4.6,0,9.1,1.7,12.6,5.2L-467,45.6z"/>
			<path class="st4" d="M-427.1,37.4v19.4c0,10-6.2,15.2-14.7,15.2c-8.1,0-15.1-4.9-15.1-15.2V37.4h6.3v19.4c0,6.1,3.5,9.3,8.8,9.3
				c5.3,0,8.3-3.5,8.3-9.3V37.4H-427.1z"/>
			<path class="st4" d="M-420.8,71.2V37.3h6.3v33.9H-420.8z"/>
			<path class="st4" d="M-378.9,46.7l-11,14.7h-1.3L-402,46.6v24.7h-6.4V37.4h7.4l10.6,14.6l10.6-14.6h7.3v33.9h-6.4V46.7z"/>
			<path class="st4" d="M-342.4,64.8h-17.7l-2.9,6.4h-6.9l15.2-33.9h7l15.2,33.9h-7L-342.4,64.8z M-351.3,44.5l-6.3,14.4h12.6
				L-351.3,44.5z"/>
			<path class="st4" d="M-299.7,71.2h-7.6l-9.9-11.3h-6.2v11.3h-6.4v-34c5.4,0,10.8,0,16.1,0c8,0,12.2,5.4,12.2,11.2
				c0,4.7-2.1,9.3-8.6,10.7l10.3,11.6V71.2z M-323.3,43.3v10.9h9.7c4.1,0,5.8-2.7,5.8-5.4c0-2.7-1.8-5.4-5.8-5.4H-323.3z"/>
			<path class="st4" d="M-273,64.8h-17.7l-2.9,6.4h-6.9l15.2-33.9h7l15.2,33.9h-7L-273,64.8z M-290.6,32.2c1.2-2.9,3.1-5,6.4-4.3
				c2.3,0.5,4.6,3.1,6.2,0l4,1.9c-1.5,3.8-3.9,5-6.2,4.4c-2.5-0.7-4.6-3.6-6.5,0L-290.6,32.2z M-281.8,44.5l-6.3,14.4h12.6
				L-281.8,44.5z"/>
			<path class="st4" d="M-235.5,71.2h-25.4c0-11.3,0-22.6,0-33.9h25.4v6.2h-19v7.8h18.4v6h-18.4v7.7h19V71.2z"/>
			<path class="st4" d="M-208.6,45.5c-1.2-1.9-4.4-3.8-8-3.8c-4.7,0-7,2-7,4.5c0,3,3.5,3.8,7.6,4.3c7.1,0.9,13.7,2.7,13.7,10.8
				c0,7.6-6.7,10.8-14.2,10.8c-6.9,0-12.3-2.1-14.8-8.3l5.3-2.8c1.5,3.7,5.4,5.4,9.5,5.4c4,0,7.8-1.4,7.8-5.1c0-3.2-3.3-4.5-7.8-5
				c-6.9-0.8-13.3-2.7-13.3-10.3c0-7,6.9-9.8,13.1-9.9c5.3,0,10.8,1.5,13.3,6.7L-208.6,45.5z"/>
		</g>
		<g>
			<path class="st4" d="M-477.6,89.2h8.2v1.4h-6.8v4.5h6.8v1.4h-6.8v5.7h6.8v1.4h-8.2V89.2z"/>
			<path class="st4" d="M-459.3,94.1l-0.9,0.9c-0.7-0.7-1.4-1.1-2.1-1.1c-0.4,0-0.8,0.1-1.1,0.4c-0.3,0.3-0.5,0.6-0.5,1
				c0,0.3,0.1,0.7,0.4,1c0.3,0.3,0.8,0.7,1.6,1.1c1,0.5,1.7,1,2.1,1.5c0.4,0.5,0.5,1.1,0.5,1.7c0,0.9-0.3,1.6-0.9,2.2
				c-0.6,0.6-1.4,0.9-2.3,0.9c-0.6,0-1.2-0.1-1.8-0.4c-0.6-0.3-1-0.6-1.4-1.1l0.9-1c0.7,0.8,1.4,1.2,2.2,1.2c0.5,0,1-0.2,1.4-0.5
				c0.4-0.4,0.6-0.8,0.6-1.2c0-0.4-0.1-0.7-0.4-1c-0.3-0.3-0.8-0.7-1.7-1.1c-1-0.5-1.6-1-2-1.5c-0.3-0.5-0.5-1-0.5-1.7
				c0-0.8,0.3-1.5,0.8-2c0.6-0.5,1.2-0.8,2.1-0.8C-461.3,92.7-460.3,93.1-459.3,94.1z"/>
			<path class="st4" d="M-444,95.1l-1.1,0.7c-0.9-1.2-2.2-1.9-3.8-1.9c-1.3,0-2.4,0.4-3.2,1.3c-0.9,0.8-1.3,1.8-1.3,3
				c0,0.8,0.2,1.5,0.6,2.2c0.4,0.7,0.9,1.2,1.6,1.6c0.7,0.4,1.5,0.6,2.3,0.6c1.6,0,2.8-0.6,3.8-1.9l1.1,0.7c-0.5,0.8-1.2,1.4-2,1.8
				c-0.9,0.4-1.8,0.6-2.9,0.6c-1.7,0-3.1-0.5-4.2-1.6c-1.1-1.1-1.7-2.4-1.7-3.9c0-1,0.3-2,0.8-2.9c0.5-0.9,1.2-1.6,2.1-2.1
				c0.9-0.5,1.9-0.7,3-0.7c0.7,0,1.4,0.1,2,0.3c0.7,0.2,1.2,0.5,1.7,0.8C-444.7,94.2-444.3,94.6-444,95.1z"/>
			<path class="st4" d="M-433.8,92.7c1.6,0,3,0.6,4.1,1.8c1,1.1,1.5,2.4,1.5,3.8c0,1.5-0.5,2.8-1.6,3.9c-1,1.1-2.4,1.7-4,1.7
				c-1.6,0-3-0.6-4-1.7c-1-1.1-1.6-2.4-1.6-3.9c0-1.5,0.5-2.8,1.5-3.8C-436.9,93.2-435.5,92.7-433.8,92.7z M-433.9,94
				c-1.1,0-2.1,0.4-2.9,1.3c-0.8,0.8-1.2,1.9-1.2,3.1c0,0.8,0.2,1.5,0.6,2.2c0.4,0.7,0.9,1.2,1.5,1.5c0.6,0.4,1.3,0.5,2.1,0.5
				c0.8,0,1.5-0.2,2.1-0.5c0.6-0.4,1.1-0.9,1.5-1.5c0.4-0.7,0.6-1.4,0.6-2.2c0-1.2-0.4-2.2-1.2-3.1C-431.7,94.4-432.7,94-433.9,94z"
				/>
			<path class="st4" d="M-423.5,88.8h1.4v14.8h-1.4V88.8z"/>
			<path class="st4" d="M-406.1,92.9v10.6h-1.4v-1.8c-0.6,0.7-1.2,1.2-1.9,1.6c-0.7,0.4-1.5,0.5-2.3,0.5c-1.5,0-2.8-0.5-3.9-1.6
				c-1.1-1.1-1.6-2.4-1.6-4c0-1.5,0.5-2.8,1.6-3.9c1.1-1.1,2.4-1.6,3.9-1.6c0.9,0,1.7,0.2,2.4,0.6c0.7,0.4,1.3,0.9,1.9,1.7v-2
				H-406.1z M-411.6,94c-0.8,0-1.5,0.2-2.1,0.6c-0.6,0.4-1.2,0.9-1.5,1.6c-0.4,0.7-0.6,1.4-0.6,2.1c0,0.7,0.2,1.5,0.6,2.1
				c0.4,0.7,0.9,1.2,1.5,1.6c0.6,0.4,1.3,0.6,2.1,0.6c0.7,0,1.5-0.2,2.1-0.6c0.7-0.4,1.2-0.9,1.5-1.5c0.4-0.6,0.5-1.4,0.5-2.2
				c0-1.2-0.4-2.3-1.2-3.1C-409.4,94.4-410.4,94-411.6,94z"/>
			<path class="st4" d="M-401.1,92.9h1.4v1.6c0.4-0.6,0.9-1.1,1.3-1.4c0.5-0.3,0.9-0.5,1.4-0.5c0.4,0,0.8,0.1,1.2,0.4l-0.7,1.2
				c-0.3-0.1-0.5-0.2-0.7-0.2c-0.5,0-0.9,0.2-1.3,0.6c-0.4,0.4-0.7,1-1,1.7c-0.2,0.6-0.3,1.8-0.3,3.7v3.6h-1.4V92.9z"/>
			<path class="st4" d="M-375,100l1.2,0.6c-0.4,0.7-0.8,1.3-1.3,1.8c-0.5,0.5-1.1,0.8-1.7,1c-0.6,0.2-1.3,0.4-2.1,0.4
				c-1.7,0-3.1-0.6-4.1-1.7c-1-1.1-1.5-2.4-1.5-3.9c0-1.4,0.4-2.6,1.2-3.6c1.1-1.3,2.5-2,4.2-2c1.8,0,3.3,0.7,4.3,2.1
				c0.8,1,1.2,2.2,1.2,3.6h-9.6c0,1.2,0.4,2.2,1.2,3c0.8,0.8,1.7,1.2,2.8,1.2c0.5,0,1.1-0.1,1.6-0.3c0.5-0.2,0.9-0.4,1.3-0.8
				C-375.8,101.2-375.4,100.7-375,100z M-375,97.2c-0.2-0.7-0.4-1.3-0.8-1.8s-0.8-0.8-1.4-1.1c-0.6-0.3-1.2-0.4-1.8-0.4
				c-1,0-1.9,0.3-2.7,1c-0.5,0.5-1,1.2-1.2,2.2H-375z"/>
			<path class="st4" d="M-360.1,89.2h1.4v8.7c0,1,0,1.7,0.1,1.9c0.1,0.6,0.2,1,0.5,1.4c0.3,0.4,0.7,0.7,1.2,1
				c0.5,0.3,1.1,0.4,1.6,0.4c0.5,0,0.9-0.1,1.4-0.3c0.4-0.2,0.8-0.5,1.1-0.8s0.5-0.8,0.6-1.3c0.1-0.4,0.1-1.1,0.1-2.3v-8.7h1.4v8.7
				c0,1.3-0.1,2.3-0.4,3.1c-0.3,0.8-0.8,1.5-1.5,2.1c-0.8,0.6-1.7,0.9-2.7,0.9c-1.2,0-2.2-0.3-3-0.8c-0.8-0.6-1.4-1.3-1.7-2.2
				c-0.2-0.6-0.3-1.6-0.3-3V89.2z"/>
			<path class="st4" d="M-344.8,92.9h1.4v1.9c0.5-0.7,1.2-1.3,1.8-1.6c0.7-0.4,1.4-0.5,2.2-0.5c0.8,0,1.5,0.2,2.1,0.6
				c0.6,0.4,1.1,0.9,1.4,1.6c0.3,0.7,0.4,1.8,0.4,3.2v5.5h-1.4v-5.1c0-1.2-0.1-2-0.2-2.5c-0.2-0.7-0.5-1.2-0.9-1.6
				c-0.4-0.4-1-0.5-1.8-0.5c-0.8,0-1.6,0.3-2.2,0.8c-0.7,0.5-1.1,1.2-1.3,2c-0.1,0.5-0.2,1.5-0.2,2.9v3.9h-1.4V92.9z"/>
			<path class="st4" d="M-329.6,88.5c0.3,0,0.6,0.1,0.8,0.3c0.2,0.2,0.3,0.5,0.3,0.8c0,0.3-0.1,0.6-0.3,0.8
				c-0.2,0.2-0.5,0.3-0.8,0.3c-0.3,0-0.6-0.1-0.8-0.3c-0.2-0.2-0.3-0.5-0.3-0.8c0-0.3,0.1-0.6,0.3-0.8
				C-330.1,88.7-329.9,88.5-329.6,88.5z M-330.3,92.9h1.4v10.6h-1.4V92.9z"/>
			<path class="st4" d="M-324.5,92.9h1.5l3.6,7.8l3.5-7.8h1.5l-4.9,10.6h-0.3L-324.5,92.9z"/>
			<path class="st4" d="M-301,100l1.2,0.6c-0.4,0.7-0.8,1.3-1.3,1.8c-0.5,0.5-1.1,0.8-1.7,1c-0.6,0.2-1.3,0.4-2.1,0.4
				c-1.7,0-3.1-0.6-4.1-1.7c-1-1.1-1.5-2.4-1.5-3.9c0-1.4,0.4-2.6,1.2-3.6c1.1-1.3,2.5-2,4.2-2c1.8,0,3.3,0.7,4.3,2.1
				c0.8,1,1.2,2.2,1.2,3.6h-9.6c0,1.2,0.4,2.2,1.2,3s1.7,1.2,2.8,1.2c0.5,0,1.1-0.1,1.6-0.3c0.5-0.2,0.9-0.4,1.3-0.8
				C-301.8,101.2-301.4,100.7-301,100z M-301,97.2c-0.2-0.7-0.4-1.3-0.8-1.8c-0.3-0.4-0.8-0.8-1.4-1.1c-0.6-0.3-1.2-0.4-1.8-0.4
				c-1,0-1.9,0.3-2.7,1c-0.5,0.5-1,1.2-1.2,2.2H-301z"/>
			<path class="st4" d="M-294.9,92.9h1.4v1.6c0.4-0.6,0.9-1.1,1.3-1.4c0.5-0.3,0.9-0.5,1.4-0.5c0.4,0,0.8,0.1,1.2,0.4l-0.7,1.2
				c-0.3-0.1-0.5-0.2-0.7-0.2c-0.5,0-0.9,0.2-1.3,0.6c-0.4,0.4-0.7,1-1,1.7c-0.2,0.6-0.3,1.8-0.3,3.7v3.6h-1.4V92.9z"/>
			<path class="st4" d="M-280.5,94.1l-0.9,0.9c-0.7-0.7-1.4-1.1-2.1-1.1c-0.4,0-0.8,0.1-1.1,0.4c-0.3,0.3-0.5,0.6-0.5,1
				c0,0.3,0.1,0.7,0.4,1c0.3,0.3,0.8,0.7,1.6,1.1c1,0.5,1.7,1,2.1,1.5c0.4,0.5,0.5,1.1,0.5,1.7c0,0.9-0.3,1.6-0.9,2.2
				c-0.6,0.6-1.4,0.9-2.3,0.9c-0.6,0-1.2-0.1-1.8-0.4s-1-0.6-1.4-1.1l0.9-1c0.7,0.8,1.4,1.2,2.2,1.2c0.5,0,1-0.2,1.4-0.5
				c0.4-0.4,0.6-0.8,0.6-1.2c0-0.4-0.1-0.7-0.4-1c-0.3-0.3-0.8-0.7-1.7-1.1c-1-0.5-1.6-1-2-1.5c-0.3-0.5-0.5-1-0.5-1.7
				c0-0.8,0.3-1.5,0.8-2c0.6-0.5,1.2-0.8,2.1-0.8C-282.5,92.7-281.5,93.1-280.5,94.1z"/>
			<path class="st4" d="M-275.1,88.5c0.3,0,0.6,0.1,0.8,0.3c0.2,0.2,0.3,0.5,0.3,0.8c0,0.3-0.1,0.6-0.3,0.8
				c-0.2,0.2-0.5,0.3-0.8,0.3c-0.3,0-0.6-0.1-0.8-0.3c-0.2-0.2-0.3-0.5-0.3-0.8c0-0.3,0.1-0.6,0.3-0.8
				C-275.7,88.7-275.4,88.5-275.1,88.5z M-275.8,92.9h1.4v10.6h-1.4V92.9z"/>
			<path class="st4" d="M-267.9,89h1.4v4h2.2v1.2h-2.2v9.5h-1.4v-9.5h-1.9v-1.2h1.9V89z"/>
			<path class="st4" d="M-249.2,92.9v10.6h-1.4v-1.8c-0.6,0.7-1.2,1.2-1.9,1.6c-0.7,0.4-1.5,0.5-2.3,0.5c-1.5,0-2.8-0.5-3.9-1.6
				c-1.1-1.1-1.6-2.4-1.6-4c0-1.5,0.5-2.8,1.6-3.9c1.1-1.1,2.4-1.6,3.9-1.6c0.9,0,1.7,0.2,2.4,0.6c0.7,0.4,1.3,0.9,1.9,1.7v-2
				H-249.2z M-254.6,94c-0.8,0-1.5,0.2-2.1,0.6c-0.6,0.4-1.2,0.9-1.5,1.6c-0.4,0.7-0.6,1.4-0.6,2.1c0,0.7,0.2,1.5,0.6,2.1
				c0.4,0.7,0.9,1.2,1.5,1.6c0.6,0.4,1.3,0.6,2.1,0.6c0.7,0,1.5-0.2,2.1-0.6c0.7-0.4,1.2-0.9,1.5-1.5c0.4-0.6,0.5-1.4,0.5-2.2
				c0-1.2-0.4-2.3-1.2-3.1C-252.5,94.4-253.5,94-254.6,94z M-253.8,87.9h2.1l-2.9,3h-1.4L-253.8,87.9z"/>
			<path class="st4" d="M-244.1,92.9h1.4v1.6c0.4-0.6,0.9-1.1,1.3-1.4c0.5-0.3,0.9-0.5,1.4-0.5c0.4,0,0.8,0.1,1.2,0.4l-0.7,1.2
				c-0.3-0.1-0.5-0.2-0.7-0.2c-0.5,0-0.9,0.2-1.3,0.6c-0.4,0.4-0.7,1-1,1.7c-0.2,0.6-0.3,1.8-0.3,3.7v3.6h-1.4V92.9z"/>
			<path class="st4" d="M-234.6,88.5c0.3,0,0.6,0.1,0.8,0.3c0.2,0.2,0.3,0.5,0.3,0.8c0,0.3-0.1,0.6-0.3,0.8
				c-0.2,0.2-0.5,0.3-0.8,0.3c-0.3,0-0.6-0.1-0.8-0.3c-0.2-0.2-0.3-0.5-0.3-0.8c0-0.3,0.1-0.6,0.3-0.8
				C-235.2,88.7-234.9,88.5-234.6,88.5z M-235.3,92.9h1.4v10.6h-1.4V92.9z"/>
			<path class="st4" d="M-223.5,92.7c1.6,0,3,0.6,4.1,1.8c1,1.1,1.5,2.4,1.5,3.8c0,1.5-0.5,2.8-1.6,3.9c-1,1.1-2.4,1.7-4,1.7
				c-1.6,0-3-0.6-4-1.7c-1-1.1-1.6-2.4-1.6-3.9c0-1.5,0.5-2.8,1.5-3.8C-226.5,93.2-225.2,92.7-223.5,92.7z M-223.5,94
				c-1.1,0-2.1,0.4-2.9,1.3c-0.8,0.8-1.2,1.9-1.2,3.1c0,0.8,0.2,1.5,0.6,2.2c0.4,0.7,0.9,1.2,1.5,1.5c0.6,0.4,1.3,0.5,2.1,0.5
				c0.8,0,1.5-0.2,2.1-0.5c0.6-0.4,1.1-0.9,1.5-1.5c0.4-0.7,0.6-1.4,0.6-2.2c0-1.2-0.4-2.2-1.2-3.1C-221.4,94.4-222.4,94-223.5,94z"
				/>
		</g>
		<line class="st13" x1="-489.5" y1="82.1" x2="-204.4" y2="82.1"/>
		<text transform="matrix(1 0 0 1 -608.9404 -7.1827)" class="st17 st18" style="font-size:2.1812px;">.............................................................................</text>
		<text transform="matrix(1 0 0 1 -608.9404 -7.5548)" class="st17 st18" style="font-size:2.1812px;">.............................................................................</text>
		<text transform="matrix(1 0 0 1 -608.9404 -7.8663)" class="st17 st18" style="font-size:2.1812px;">.............................................................................</text>
		<text transform="matrix(1 0 0 1 -608.9404 -6.7618)" class="st17 st18" style="font-size:2.1812px;">.............................................................................</text>
		<text transform="matrix(1 0 0 1 -608.9404 -6.3409)" class="st17 st18" style="font-size:2.1812px;">.............................................................................</text>
		<text transform="matrix(1 0 0 1 -608.9404 -5.921)" class="st17 st18" style="font-size:2.1812px;">.............................................................................</text>
		<text transform="matrix(1 0 0 1 -608.9404 -5.5001)" class="st17 st18" style="font-size:2.1812px;">.............................................................................</text>
		<text transform="matrix(1 0 0 1 -608.9404 -5.0792)" class="st17 st18" style="font-size:2.1812px;">.............................................................................</text>
		<text transform="matrix(1 0 0 1 -608.9404 -4.6593)" class="st17 st18" style="font-size:2.1812px;">.............................................................................</text>
		<text transform="matrix(1 0 0 1 -608.9404 -4.2384)" class="st17 st18" style="font-size:2.1812px;">.............................................................................</text>
		<text transform="matrix(1 0 0 1 -608.9404 -3.8175)" class="st17 st18" style="font-size:2.1812px;">.............................................................................</text>
		<text transform="matrix(1 0 0 1 -608.9404 -3.3975)" class="st17 st18" style="font-size:2.1812px;">.............................................................................</text>
		<text transform="matrix(1 0 0 1 -608.9404 -2.9776)" class="st17 st18" style="font-size:2.1812px;">.............................................................................</text>
		<text transform="matrix(1 0 0 1 -608.9404 -2.5557)" class="st17 st18" style="font-size:2.1812px;">.............................................................................</text>
		<text transform="matrix(1 0 0 1 -608.9404 -2.1827)" class="st17 st18" style="font-size:2.1812px;">.............................................................................</text>
		<text transform="matrix(1 0 0 1 -608.9404 -1.8341)" class="st17 st18" style="font-size:2.1812px;">.............................................................................</text>
		<g>
			<path class="st4" d="M-604.8-2.6v-4.8h1c0.7,0,1.2,0.1,1.6,0.2c0.5,0.2,0.8,0.4,1.1,0.8c0.3,0.4,0.4,0.9,0.4,1.4
				c0,0.5-0.1,0.9-0.3,1.3c-0.2,0.4-0.5,0.6-0.8,0.8c-0.3,0.2-0.8,0.3-1.4,0.3H-604.8z M-604.3-3h0.6c0.7,0,1.1,0,1.4-0.1
				c0.4-0.1,0.6-0.3,0.8-0.6c0.2-0.3,0.3-0.7,0.3-1.1c0-0.5-0.1-0.9-0.3-1.2c-0.2-0.3-0.5-0.5-0.9-0.7c-0.3-0.1-0.8-0.1-1.5-0.1
				h-0.3V-3z"/>
			<path class="st4" d="M-599.2-7.3h2.7v0.5h-2.3v1.5h2.2v0.5h-2.2V-3h2.2v0.5h-2.7V-7.3z"/>
			<path class="st4" d="M-595.5-3.4l0.4-0.2c0.3,0.5,0.6,0.8,1,0.8c0.2,0,0.3,0,0.5-0.1c0.1-0.1,0.2-0.2,0.3-0.3
				c0.1-0.1,0.1-0.3,0.1-0.4c0-0.2-0.1-0.3-0.2-0.5c-0.1-0.2-0.4-0.5-0.8-0.8c-0.4-0.3-0.6-0.5-0.7-0.7c-0.2-0.2-0.3-0.5-0.3-0.7
				c0-0.2,0-0.4,0.1-0.6c0.1-0.2,0.2-0.3,0.4-0.4s0.4-0.1,0.6-0.1c0.2,0,0.4,0.1,0.6,0.2c0.2,0.1,0.4,0.3,0.6,0.6l-0.4,0.3
				c-0.2-0.2-0.3-0.4-0.5-0.5c-0.1-0.1-0.3-0.1-0.4-0.1c-0.2,0-0.3,0.1-0.5,0.2c-0.1,0.1-0.2,0.3-0.2,0.4c0,0.1,0,0.2,0.1,0.3
				c0,0.1,0.1,0.2,0.2,0.3c0.1,0.1,0.3,0.2,0.6,0.5c0.4,0.3,0.7,0.6,0.8,0.8c0.2,0.2,0.2,0.5,0.2,0.7c0,0.3-0.1,0.6-0.4,0.9
				c-0.3,0.3-0.6,0.4-1,0.4c-0.3,0-0.6-0.1-0.8-0.2C-595.1-2.8-595.3-3.1-595.5-3.4z"/>
			<path class="st4" d="M-591.1-2.6v-4.8h1c0.7,0,1.2,0.1,1.6,0.2c0.5,0.2,0.8,0.4,1.1,0.8c0.3,0.4,0.4,0.9,0.4,1.4
				c0,0.5-0.1,0.9-0.3,1.3c-0.2,0.4-0.5,0.6-0.8,0.8c-0.3,0.2-0.8,0.3-1.4,0.3H-591.1z M-590.6-3h0.6c0.7,0,1.1,0,1.4-0.1
				c0.4-0.1,0.6-0.3,0.8-0.6c0.2-0.3,0.3-0.7,0.3-1.1c0-0.5-0.1-0.9-0.3-1.2c-0.2-0.3-0.5-0.5-0.9-0.7c-0.3-0.1-0.8-0.1-1.5-0.1
				h-0.3V-3z"/>
			<path class="st4" d="M-585.5-7.3h2.7v0.5h-2.3v1.5h2.2v0.5h-2.2V-3h2.2v0.5h-2.7V-7.3z"/>
			<path class="st4" d="M-578.2-7.3h0.9v4.8h-0.5v-4.3h-0.7L-578.2-7.3z"/>
			<path class="st4" d="M-573.8-2.4l-0.4-0.3l1.3-2c-0.2,0.1-0.3,0.1-0.5,0.1c-0.4,0-0.7-0.1-1-0.4c-0.3-0.3-0.4-0.6-0.4-1
				c0-0.3,0.1-0.5,0.2-0.7c0.1-0.2,0.3-0.4,0.5-0.5c0.2-0.1,0.5-0.2,0.8-0.2c0.3,0,0.5,0.1,0.7,0.2c0.2,0.1,0.4,0.3,0.5,0.5
				c0.1,0.2,0.2,0.5,0.2,0.7c0,0.2,0,0.4-0.1,0.6c-0.1,0.2-0.2,0.5-0.4,0.8L-573.8-2.4z M-573.3-5c0.3,0,0.5-0.1,0.7-0.3
				c0.2-0.2,0.3-0.4,0.3-0.7c0-0.3-0.1-0.5-0.3-0.7S-573-7-573.3-7c-0.3,0-0.5,0.1-0.7,0.3s-0.3,0.4-0.3,0.7c0,0.3,0.1,0.5,0.3,0.7
				S-573.6-5-573.3-5z"/>
			<path class="st4" d="M-569.5-2.4l-0.4-0.3l1.3-2c-0.2,0.1-0.3,0.1-0.5,0.1c-0.4,0-0.7-0.1-1-0.4c-0.3-0.3-0.4-0.6-0.4-1
				c0-0.3,0.1-0.5,0.2-0.7c0.1-0.2,0.3-0.4,0.5-0.5c0.2-0.1,0.5-0.2,0.8-0.2c0.3,0,0.5,0.1,0.7,0.2c0.2,0.1,0.4,0.3,0.5,0.5
				c0.1,0.2,0.2,0.5,0.2,0.7c0,0.2,0,0.4-0.1,0.6c-0.1,0.2-0.2,0.5-0.4,0.8L-569.5-2.4z M-569-5c0.3,0,0.5-0.1,0.7-0.3
				c0.2-0.2,0.3-0.4,0.3-0.7c0-0.3-0.1-0.5-0.3-0.7S-568.7-7-569-7c-0.3,0-0.5,0.1-0.7,0.3c-0.2,0.2-0.3,0.4-0.3,0.7
				c0,0.3,0.1,0.5,0.3,0.7S-569.3-5-569-5z"/>
			<path class="st4" d="M-566-7.3h3l-2.5,4.9l-0.4-0.2l2.2-4.2h-2.3V-7.3z"/>
		</g>
		<text transform="matrix(1 0 0 1 -558.5029 -7.8663)" class="st17 st18" style="font-size:2.1812px;">.</text>
		<text transform="matrix(1 0 0 1 -558.5049 -7.5538)" class="st17 st18" style="font-size:2.1812px;">.</text>
		<text transform="matrix(1 0 0 1 -558.5049 -7.1817)" class="st17 st18" style="font-size:2.1812px;">.</text>
		<text transform="matrix(1 0 0 1 -558.5049 -6.7608)" class="st17 st18" style="font-size:2.1812px;">.</text>
		<text transform="matrix(1 0 0 1 -558.5049 -6.3409)" class="st17 st18" style="font-size:2.1812px;">.</text>
		<text transform="matrix(1 0 0 1 -558.5049 -5.92)" class="st17 st18" style="font-size:2.1812px;">.</text>
		<text transform="matrix(1 0 0 1 -558.5049 -5.4991)" class="st17 st18" style="font-size:2.1812px;">.</text>
		<text transform="matrix(1 0 0 1 -558.5049 -5.0792)" class="st17 st18" style="font-size:2.1812px;">.</text>
		<text transform="matrix(1 0 0 1 -558.5049 -4.6593)" class="st17 st18" style="font-size:2.1812px;">.</text>
		<text transform="matrix(1 0 0 1 -558.5049 -4.2374)" class="st17 st18" style="font-size:2.1812px;">.</text>
		<text transform="matrix(1 0 0 1 -558.5049 -3.8175)" class="st17 st18" style="font-size:2.1812px;">.</text>
		<text transform="matrix(1 0 0 1 -558.5049 -3.3975)" class="st17 st18" style="font-size:2.1812px;">.</text>
		<text transform="matrix(1 0 0 1 -558.5049 -2.9766)" class="st17 st18" style="font-size:2.1812px;">.</text>
		<text transform="matrix(1 0 0 1 -558.5049 -2.5557)" class="st17 st18" style="font-size:2.1812px;">.</text>
		<text transform="matrix(1 0 0 1 -558.5049 -2.1358)" class="st17 st18" style="font-size:2.1812px;">.</text>
		<text transform="matrix(1 0 0 1 -558.5049 -1.8341)" class="st17 st18" style="font-size:2.1812px;">.</text>
		<rect x="-603.4" y="-6.4" class="st10" width="40.2" height="4.9"/>
		<polygon class="st10" points="-653.1,56.8 -648.7,56.8 -648.7,63.2 -639.4,68.9 -642.5,73.2 -653.1,67.4 		"/>
		<polygon class="st4" points="-652.4,57.6 -649.5,57.6 -649.5,63.8 -640.6,69.2 -642.8,72.1 -652.4,66.9 		"/>
		<polygon class="st10" points="-626.3,55.5 -622,55.5 -622,61.9 -612.6,67.6 -615.7,71.9 -626.3,66.1 		"/>
		<polygon class="st10" points="-625.6,56.3 -622.7,56.3 -622.7,62.5 -613.8,67.8 -616,70.8 -625.6,65.6 		"/>
		<polygon class="st4" points="-677.1,71.3 -677.1,75.7 -670.7,79.6 -672.2,81.5 -678.9,77.9 -678.9,71.3 		"/>
	</g>
	<g>
		<rect x="50.2" y="49.4" class="st4" width="6.3" height="3.6"/>
		<rect x="23.2" y="49.4" class="st4" width="6.3" height="3.6"/>
		<rect x="20.6" y="47.2" class="st4" width="38.1" height="2.2"/>
		<ellipse class="st4" cx="48.3" cy="24.2" rx="3.1" ry="3.2"/>
		<polygon class="st4" points="44.2,32.5 44.3,28.7 47,28.2 48.2,29.7 49.5,28.2 51.7,28.2 52.2,32.5 		"/>
		<polygon class="st4" points="34.2,32.5 32.3,29.9 29.3,29.9 27.2,32.5 28.4,32.5 29.2,31.5 29.3,31.5 29.3,32.5 32.1,32.5 
			32.1,31.2 32.2,31.2 33.1,32.5 		"/>
		<circle class="st14" cx="30.8" cy="26.8" r="2.3"/>
		<path class="st4" d="M32.9,27h-1.8v-0.9h-0.3L30.3,27h-0.4v-0.5l-0.1,0l-0.3,0L29,27h-0.7c0,0,0.4-2.3,2.5-2.5S33.3,26.7,32.9,27"
			/>
		<path class="st4" d="M33.2,26.5c0,0,0.5,0.3,0.5,0.3c0.3,0.2,0.6,0.4,0.8,0.8c0.1,0.3,0.1,0.6,0,0.9c-0.1,0.1-0.2,0.3-0.3,0.4
			c-0.1,0.1-0.1,0.1-0.2,0c-0.1-0.1,0-0.2-0.1-0.3c-0.1-0.1-0.1-0.3-0.2-0.4c-0.2-0.3-0.4-0.7-0.7-0.9C33,27.3,33.2,26.5,33.2,26.5z
			"/>
		<path class="st4" d="M28.5,26.4c0,0-0.5,0.3-0.5,0.3c-0.3,0.2-0.6,0.4-0.8,0.8c-0.1,0.3-0.1,0.6,0,0.9c0.1,0.1,0.2,0.3,0.3,0.4
			c0.1,0.1,0.1,0.1,0.2,0c0.1-0.1,0-0.2,0.1-0.3c0.1-0.1,0.1-0.3,0.2-0.4c0.2-0.3,0.4-0.7,0.7-0.9C28.6,27.1,28.5,26.4,28.5,26.4z"
			/>
		<path class="st6" d="M58.6,12.2c0-0.1-0.8-0.5-0.9-0.6c-0.9-0.5-1.9-1-2.9-1.3c-1.7-0.6-3.5-1.1-5.2-1.4c-4.7-0.9-9.5-1-14.3-1
			c-4.3,0-8.7,0.9-12.5,2.9c-0.1,0.1-0.2,0.1-0.3,0.2c-0.4,0.2-0.8,0.4-1.1,0.7c-0.2,0.1-0.8,0.4-0.8,0.6l0.1,33.2h38.1
			C58.7,45.4,58.6,12.2,58.6,12.2z M52.5,11.8c0.9,0,1.6,0.7,1.6,1.6c0,0.9-0.7,1.6-1.6,1.6c-0.9,0-1.6-0.7-1.6-1.6
			C50.9,12.5,51.6,11.8,52.5,11.8z M55.4,18.2v14.4H40.6V18.2H55.4z M30.3,12.2h18.6v2.3H30.3V12.2z M26.7,11.8
			c0.9,0,1.6,0.7,1.6,1.6c0,0.9-0.7,1.6-1.6,1.6c-0.9,0-1.6-0.7-1.6-1.6C25.1,12.5,25.8,11.8,26.7,11.8z M23.4,18.2h14.7v14.4H23.4
			V18.2z M26.4,42.4c-1.8,0-3.2-1.5-3.2-3.3c0-1.8,1.4-3.3,3.2-3.3c1.8,0,3.2,1.5,3.2,3.3C29.6,40.9,28.2,42.4,26.4,42.4z
			 M47.1,43.9H32.3v-1.8h14.7V43.9z M47.1,40.7H32.3v-1.8h14.7V40.7z M47.1,37.3H32.3v-1.8h14.7V37.3z M53.4,42.4
			c-1.8,0-3.2-1.5-3.2-3.3c0-1.8,1.4-3.3,3.2-3.3s3.2,1.5,3.2,3.3C56.5,40.9,55.1,42.4,53.4,42.4z"/>
		<rect x="13.4" y="18.5" class="st15" width="6.6" height="25.4"/>
		<rect x="15.5" y="21.4" class="st6" width="4" height="5.4"/>
		<rect x="59.7" y="21.4" class="st6" width="4" height="5.4"/>
		<polygon class="st4" points="6.7,53.4 6.7,53.1 6.2,53.1 6.6,50 6.1,46.8 3.9,46.8 4.9,50.1 4.2,53.1 4.2,53.4 		"/>
		<polygon class="st4" points="4.5,43.7 4.5,41.1 5.5,41.1 5.5,42.8 6.1,43.2 6.1,40.2 3.6,40.2 3.6,46.5 6.1,46.5 6.1,44.6 		"/>
		<path class="st4" d="M3.6,45.7l-0.5-0.1v0.4l-2.9,0.4c0,0,0.1-5.1,0.4-5.3c0,0-0.1-0.4,2-0.8l0-0.5h0.2l0,0.5h0.2l0,0.1l0.5,0V41
			H3.1l0,3.8L3.6,45L3.6,45.7z"/>
		<circle class="st4" cx="5.5" cy="38.1" r="1.6"/>
		<polygon class="st4" points="17.3,53.2 17.3,52.8 16.6,52.8 17.1,48.5 16.5,44 13.4,44 14.8,48.6 13.8,52.8 13.8,53.2 		"/>
		<polygon class="st4" points="14.3,39.7 14.3,36.1 15.6,36.1 15.6,38.4 16.5,38.9 16.5,34.7 12.9,34.7 12.9,43.6 16.5,43.6 
			16.5,40.9 		"/>
		<path class="st4" d="M12.9,42.4l-0.7-0.2v0.5l-4,0.5c0,0,0.1-7.2,0.5-7.4c0,0-0.1-0.6,2.8-1.1l0-0.7h0.3l0,0.7h0.3l0,0.2l0.7,0v1
			h-0.7l0,5.3l0.6,0.3L12.9,42.4z"/>
		<circle class="st4" cx="15.6" cy="31.8" r="2.2"/>
		<g>
			<path class="st8" d="M84.4,20.8c-1.3,1.3-3.1,1.9-4.9,1.9c-4.8,0-6.9-3.3-6.9-6.7c0-3.4,2.2-6.9,6.9-6.9c1.8,0,3.4,0.7,4.8,2
				l-1.6,1.6c-0.9-0.8-2-1.2-3.1-1.2c-3.1,0-4.5,2.3-4.5,4.5c0,2.2,1.3,4.4,4.5,4.4c1.1,0,2.4-0.5,3.3-1.3L84.4,20.8z"/>
			<path class="st8" d="M96.2,20h-6.8l-1.1,2.5h-2.7l5.8-13h2.7l5.8,13h-2.7L96.2,20z M92.8,12.2l-2.4,5.5h4.8L92.8,12.2z"/>
			<path class="st8" d="M114.4,22.4h-2.9l-3.8-4.4h-2.4v4.4h-2.5v-13c2.1,0,4.1,0,6.2,0c3.1,0,4.7,2.1,4.7,4.3
				c0,1.8-0.8,3.6-3.3,4.1l3.9,4.4V22.4z M105.3,11.7v4.2h3.7c1.6,0,2.2-1,2.2-2.1c0-1-0.7-2.1-2.2-2.1H105.3z"/>
			<path class="st8" d="M119.6,9.4v10.7h6.7v2.3h-9.1v-13H119.6z"/>
			<path class="st8" d="M129.8,22.4v-13h2.4v13H129.8z"/>
			<path class="st8" d="M144.9,9.4h2.5v13h-1.5v0l-6.8-8.8v8.8h-2.5v-13h2l6.4,8.1V9.4z"/>
			<path class="st8" d="M162.8,15.8c0.1,3.3-2,6.6-6.5,6.6c-1.6,0-3.5,0-5.1,0v-13c1.6,0,3.5,0,5.1,0
				C160.8,9.4,162.8,12.6,162.8,15.8z M153.6,20.1h2.7c3,0,4.1-2.2,4.1-4.3c-0.1-2-1.2-4.1-4.1-4.1h-2.7V20.1z"/>
			<path class="st8" d="M179.2,16c0,3.4-2.1,6.7-6.7,6.7c-4.6,0-6.7-3.3-6.7-6.7s2.2-6.9,6.7-6.9C177,9.2,179.2,12.6,179.2,16z
				 M168.2,16.1c0.1,2.1,1.2,4.4,4.3,4.4c3.1,0,4.2-2.3,4.3-4.4c0-2.2-1.2-4.6-4.3-4.6C169.4,11.4,168.2,13.9,168.2,16.1z"/>
		</g>
		<g>
			<path class="st4" d="M82.3,31.9c-0.8-0.8-2.1-1.2-3.2-1.2c-2.7,0-4.3,2-4.3,4.6c0,2,1.2,4.2,4.3,4.2c1,0,1.8-0.2,2.8-1v-2.2h-3.2
				v-2.1h5.3v5.2c-1.2,1.4-2.8,2.2-4.9,2.2c-4.7,0-6.6-3.1-6.6-6.3c0-3.5,2.2-6.7,6.6-6.7c1.7,0,3.3,0.6,4.6,1.9L82.3,31.9z"/>
			<path class="st4" d="M96.9,28.8v7.1c0,3.7-2.3,5.6-5.4,5.6c-3,0-5.5-1.8-5.5-5.6v-7.1h2.3v7.1c0,2.2,1.3,3.4,3.2,3.4
				c1.9,0,3-1.3,3-3.4v-7.1H96.9z"/>
			<path class="st4" d="M99.2,41.2V28.8h2.3v12.4H99.2z"/>
			<path class="st4" d="M114.5,32.2l-4,5.4H110l-4-5.4v9h-2.3V28.8h2.7l3.9,5.3l3.9-5.3h2.7v12.4h-2.3V32.2z"/>
			<path class="st4" d="M127.9,38.9h-6.5l-1.1,2.3h-2.5l5.6-12.4h2.6l5.6,12.4h-2.6L127.9,38.9z M124.6,31.4l-2.3,5.3h4.6
				L124.6,31.4z"/>
			<path class="st4" d="M143.5,41.2h-2.8l-3.6-4.2h-2.3v4.2h-2.3V28.8c2,0,3.9,0,5.9,0c2.9,0,4.5,2,4.5,4.1c0,1.7-0.8,3.4-3.1,3.9
				l3.8,4.2V41.2z M134.9,31v4h3.6c1.5,0,2.1-1,2.1-2c0-1-0.7-2-2.1-2H134.9z"/>
			<path class="st4" d="M153.3,38.9h-6.5l-1.1,2.3h-2.5l5.6-12.4h2.6l5.6,12.4h-2.6L153.3,38.9z M146.9,27c0.4-1.1,1.1-1.8,2.3-1.6
				c0.9,0.2,1.7,1.2,2.3,0l1.5,0.7c-0.5,1.4-1.4,1.8-2.3,1.6c-0.9-0.2-1.7-1.3-2.4,0L146.9,27z M150.1,31.4l-2.3,5.3h4.6L150.1,31.4
				z"/>
			<path class="st4" d="M167,41.2h-9.3c0-4.1,0-8.3,0-12.4h9.3v2.3h-7v2.9h6.7v2.2h-6.7v2.8h7V41.2z"/>
			<path class="st4" d="M176.9,31.8c-0.4-0.7-1.6-1.4-2.9-1.4c-1.7,0-2.6,0.7-2.6,1.6c0,1.1,1.3,1.4,2.8,1.6c2.6,0.3,5,1,5,4
				c0,2.8-2.4,4-5.2,4c-2.5,0-4.5-0.8-5.4-3.1l2-1c0.5,1.4,2,2,3.5,2c1.5,0,2.9-0.5,2.9-1.9c0-1.2-1.2-1.6-2.9-1.8
				c-2.5-0.3-4.9-1-4.9-3.8c0-2.6,2.5-3.6,4.8-3.6c1.9,0,3.9,0.5,4.9,2.5L176.9,31.8z"/>
		</g>
		<g>
			<path class="st4" d="M78.4,47.8h3v0.5h-2.5V50h2.5v0.5h-2.5v2.1h2.5v0.5h-3V47.8z"/>
			<path class="st4" d="M85.1,49.6l-0.3,0.3c-0.3-0.3-0.5-0.4-0.8-0.4c-0.2,0-0.3,0.1-0.4,0.2c-0.1,0.1-0.2,0.2-0.2,0.4
				c0,0.1,0,0.2,0.1,0.4c0.1,0.1,0.3,0.3,0.6,0.4c0.4,0.2,0.6,0.4,0.8,0.6c0.1,0.2,0.2,0.4,0.2,0.6c0,0.3-0.1,0.6-0.3,0.8
				c-0.2,0.2-0.5,0.3-0.8,0.3c-0.2,0-0.4,0-0.6-0.1c-0.2-0.1-0.4-0.2-0.5-0.4l0.3-0.4c0.3,0.3,0.5,0.4,0.8,0.4
				c0.2,0,0.4-0.1,0.5-0.2c0.1-0.1,0.2-0.3,0.2-0.5c0-0.1,0-0.3-0.1-0.4c-0.1-0.1-0.3-0.2-0.6-0.4c-0.4-0.2-0.6-0.4-0.7-0.5
				c-0.1-0.2-0.2-0.4-0.2-0.6c0-0.3,0.1-0.5,0.3-0.7c0.2-0.2,0.5-0.3,0.8-0.3C84.4,49.1,84.7,49.2,85.1,49.6z"/>
			<path class="st4" d="M90.7,50l-0.4,0.2c-0.3-0.5-0.8-0.7-1.4-0.7c-0.5,0-0.9,0.2-1.2,0.5c-0.3,0.3-0.5,0.7-0.5,1.1
				c0,0.3,0.1,0.6,0.2,0.8c0.1,0.3,0.3,0.4,0.6,0.6c0.3,0.1,0.5,0.2,0.8,0.2c0.6,0,1-0.2,1.4-0.7l0.4,0.3c-0.2,0.3-0.4,0.5-0.8,0.7
				s-0.7,0.2-1.1,0.2c-0.6,0-1.1-0.2-1.5-0.6c-0.4-0.4-0.6-0.9-0.6-1.4c0-0.4,0.1-0.7,0.3-1.1c0.2-0.3,0.5-0.6,0.8-0.8
				c0.3-0.2,0.7-0.3,1.1-0.3c0.3,0,0.5,0,0.7,0.1s0.4,0.2,0.6,0.3C90.4,49.6,90.6,49.8,90.7,50z"/>
			<path class="st4" d="M94.4,49.1c0.6,0,1.1,0.2,1.5,0.7c0.4,0.4,0.5,0.9,0.5,1.4c0,0.5-0.2,1-0.6,1.4c-0.4,0.4-0.9,0.6-1.5,0.6
				c-0.6,0-1.1-0.2-1.5-0.6c-0.4-0.4-0.6-0.9-0.6-1.4c0-0.5,0.2-1,0.5-1.4C93.3,49.3,93.8,49.1,94.4,49.1z M94.4,49.6
				c-0.4,0-0.8,0.2-1.1,0.5c-0.3,0.3-0.4,0.7-0.4,1.1c0,0.3,0.1,0.5,0.2,0.8c0.1,0.2,0.3,0.4,0.6,0.6c0.2,0.1,0.5,0.2,0.8,0.2
				c0.3,0,0.5-0.1,0.8-0.2c0.2-0.1,0.4-0.3,0.6-0.6c0.1-0.2,0.2-0.5,0.2-0.8c0-0.4-0.2-0.8-0.5-1.1C95.2,49.7,94.8,49.6,94.4,49.6z"
				/>
			<path class="st4" d="M98.2,47.7h0.5v5.4h-0.5V47.7z"/>
			<path class="st4" d="M104.5,49.2v3.9h-0.5v-0.7c-0.2,0.3-0.4,0.4-0.7,0.6c-0.3,0.1-0.5,0.2-0.9,0.2c-0.6,0-1-0.2-1.4-0.6
				c-0.4-0.4-0.6-0.9-0.6-1.5c0-0.6,0.2-1,0.6-1.4c0.4-0.4,0.9-0.6,1.4-0.6c0.3,0,0.6,0.1,0.9,0.2c0.3,0.1,0.5,0.3,0.7,0.6v-0.7
				H104.5z M102.5,49.6c-0.3,0-0.5,0.1-0.8,0.2c-0.2,0.1-0.4,0.3-0.6,0.6c-0.1,0.2-0.2,0.5-0.2,0.8c0,0.3,0.1,0.5,0.2,0.8
				c0.1,0.3,0.3,0.4,0.6,0.6c0.2,0.1,0.5,0.2,0.8,0.2c0.3,0,0.5-0.1,0.8-0.2c0.2-0.1,0.4-0.3,0.6-0.6c0.1-0.2,0.2-0.5,0.2-0.8
				c0-0.5-0.1-0.8-0.4-1.1C103.3,49.7,103,49.6,102.5,49.6z"/>
			<path class="st4" d="M106.4,49.2h0.5v0.6c0.2-0.2,0.3-0.4,0.5-0.5c0.2-0.1,0.3-0.2,0.5-0.2c0.1,0,0.3,0,0.4,0.1l-0.3,0.4
				c-0.1,0-0.2-0.1-0.3-0.1c-0.2,0-0.3,0.1-0.5,0.2c-0.2,0.1-0.3,0.4-0.4,0.6c-0.1,0.2-0.1,0.7-0.1,1.3v1.3h-0.5V49.2z"/>
			<path class="st4" d="M115.9,51.8l0.4,0.2c-0.1,0.3-0.3,0.5-0.5,0.7c-0.2,0.2-0.4,0.3-0.6,0.4c-0.2,0.1-0.5,0.1-0.8,0.1
				c-0.6,0-1.1-0.2-1.5-0.6c-0.4-0.4-0.5-0.9-0.5-1.4c0-0.5,0.2-0.9,0.5-1.3c0.4-0.5,0.9-0.7,1.5-0.7c0.7,0,1.2,0.3,1.6,0.8
				c0.3,0.4,0.4,0.8,0.4,1.3H113c0,0.5,0.2,0.8,0.4,1.1s0.6,0.4,1,0.4c0.2,0,0.4,0,0.6-0.1c0.2-0.1,0.3-0.2,0.5-0.3
				C115.7,52.2,115.8,52,115.9,51.8z M115.9,50.7c-0.1-0.3-0.2-0.5-0.3-0.6c-0.1-0.2-0.3-0.3-0.5-0.4c-0.2-0.1-0.4-0.1-0.7-0.1
				c-0.4,0-0.7,0.1-1,0.4c-0.2,0.2-0.4,0.4-0.5,0.8H115.9z"/>
			<path class="st4" d="M121.4,47.8h0.5V51c0,0.4,0,0.6,0,0.7c0,0.2,0.1,0.4,0.2,0.5c0.1,0.1,0.2,0.3,0.4,0.4
				c0.2,0.1,0.4,0.1,0.6,0.1c0.2,0,0.3,0,0.5-0.1s0.3-0.2,0.4-0.3c0.1-0.1,0.2-0.3,0.2-0.5c0-0.1,0.1-0.4,0.1-0.8v-3.2h0.5V51
				c0,0.5,0,0.9-0.1,1.1c-0.1,0.3-0.3,0.5-0.6,0.8s-0.6,0.3-1,0.3c-0.4,0-0.8-0.1-1.1-0.3c-0.3-0.2-0.5-0.5-0.6-0.8
				c-0.1-0.2-0.1-0.6-0.1-1.1V47.8z"/>
			<path class="st4" d="M127,49.2h0.5v0.7c0.2-0.3,0.4-0.5,0.7-0.6c0.2-0.1,0.5-0.2,0.8-0.2c0.3,0,0.5,0.1,0.8,0.2
				c0.2,0.1,0.4,0.3,0.5,0.6c0.1,0.3,0.2,0.6,0.2,1.2v2h-0.5v-1.9c0-0.4,0-0.7-0.1-0.9c-0.1-0.3-0.2-0.5-0.3-0.6
				c-0.2-0.1-0.4-0.2-0.6-0.2c-0.3,0-0.6,0.1-0.8,0.3c-0.2,0.2-0.4,0.4-0.5,0.7c0,0.2-0.1,0.5-0.1,1.1v1.4H127V49.2z"/>
			<path class="st4" d="M132.6,47.6c0.1,0,0.2,0,0.3,0.1c0.1,0.1,0.1,0.2,0.1,0.3c0,0.1,0,0.2-0.1,0.3c-0.1,0.1-0.2,0.1-0.3,0.1
				c-0.1,0-0.2,0-0.3-0.1c-0.1-0.1-0.1-0.2-0.1-0.3c0-0.1,0-0.2,0.1-0.3C132.4,47.6,132.5,47.6,132.6,47.6z M132.3,49.2h0.5v3.9
				h-0.5V49.2z"/>
			<path class="st4" d="M134.4,49.2h0.5l1.3,2.8l1.3-2.8h0.5l-1.8,3.9h-0.1L134.4,49.2z"/>
			<path class="st4" d="M143.1,51.8l0.4,0.2c-0.1,0.3-0.3,0.5-0.5,0.7c-0.2,0.2-0.4,0.3-0.6,0.4c-0.2,0.1-0.5,0.1-0.8,0.1
				c-0.6,0-1.1-0.2-1.5-0.6c-0.4-0.4-0.5-0.9-0.5-1.4c0-0.5,0.2-0.9,0.5-1.3c0.4-0.5,0.9-0.7,1.5-0.7c0.7,0,1.2,0.3,1.6,0.8
				c0.3,0.4,0.4,0.8,0.4,1.3h-3.5c0,0.5,0.2,0.8,0.4,1.1s0.6,0.4,1,0.4c0.2,0,0.4,0,0.6-0.1c0.2-0.1,0.3-0.2,0.5-0.3
				C142.8,52.2,142.9,52,143.1,51.8z M143.1,50.7c-0.1-0.3-0.2-0.5-0.3-0.6c-0.1-0.2-0.3-0.3-0.5-0.4c-0.2-0.1-0.4-0.1-0.7-0.1
				c-0.4,0-0.7,0.1-1,0.4c-0.2,0.2-0.4,0.4-0.5,0.8H143.1z"/>
			<path class="st4" d="M145.3,49.2h0.5v0.6c0.2-0.2,0.3-0.4,0.5-0.5c0.2-0.1,0.3-0.2,0.5-0.2c0.1,0,0.3,0,0.4,0.1l-0.3,0.4
				c-0.1,0-0.2-0.1-0.3-0.1c-0.2,0-0.3,0.1-0.5,0.2c-0.2,0.1-0.3,0.4-0.4,0.6c-0.1,0.2-0.1,0.7-0.1,1.3v1.3h-0.5V49.2z"/>
			<path class="st4" d="M150.5,49.6l-0.3,0.3c-0.3-0.3-0.5-0.4-0.8-0.4c-0.2,0-0.3,0.1-0.4,0.2c-0.1,0.1-0.2,0.2-0.2,0.4
				c0,0.1,0,0.2,0.1,0.4c0.1,0.1,0.3,0.3,0.6,0.4c0.4,0.2,0.6,0.4,0.8,0.6c0.1,0.2,0.2,0.4,0.2,0.6c0,0.3-0.1,0.6-0.3,0.8
				c-0.2,0.2-0.5,0.3-0.8,0.3c-0.2,0-0.4,0-0.6-0.1c-0.2-0.1-0.4-0.2-0.5-0.4l0.3-0.4c0.3,0.3,0.5,0.4,0.8,0.4
				c0.2,0,0.4-0.1,0.5-0.2c0.1-0.1,0.2-0.3,0.2-0.5c0-0.1,0-0.3-0.1-0.4c-0.1-0.1-0.3-0.2-0.6-0.4c-0.4-0.2-0.6-0.4-0.7-0.5
				c-0.1-0.2-0.2-0.4-0.2-0.6c0-0.3,0.1-0.5,0.3-0.7c0.2-0.2,0.5-0.3,0.8-0.3C149.8,49.1,150.2,49.2,150.5,49.6z"/>
			<path class="st4" d="M152.5,47.6c0.1,0,0.2,0,0.3,0.1c0.1,0.1,0.1,0.2,0.1,0.3c0,0.1,0,0.2-0.1,0.3c-0.1,0.1-0.2,0.1-0.3,0.1
				c-0.1,0-0.2,0-0.3-0.1c-0.1-0.1-0.1-0.2-0.1-0.3c0-0.1,0-0.2,0.1-0.3C152.3,47.6,152.4,47.6,152.5,47.6z M152.3,49.2h0.5v3.9
				h-0.5V49.2z"/>
			<path class="st4" d="M155.2,47.7h0.5v1.4h0.8v0.4h-0.8v3.5h-0.5v-3.5h-0.7v-0.4h0.7V47.7z"/>
			<path class="st4" d="M162,49.2v3.9h-0.5v-0.7c-0.2,0.3-0.4,0.4-0.7,0.6c-0.3,0.1-0.5,0.2-0.9,0.2c-0.6,0-1-0.2-1.4-0.6
				c-0.4-0.4-0.6-0.9-0.6-1.5c0-0.6,0.2-1,0.6-1.4c0.4-0.4,0.9-0.6,1.4-0.6c0.3,0,0.6,0.1,0.9,0.2c0.3,0.1,0.5,0.3,0.7,0.6v-0.7H162
				z M160,49.6c-0.3,0-0.5,0.1-0.8,0.2c-0.2,0.1-0.4,0.3-0.6,0.6c-0.1,0.2-0.2,0.5-0.2,0.8c0,0.3,0.1,0.5,0.2,0.8
				c0.1,0.3,0.3,0.4,0.6,0.6c0.2,0.1,0.5,0.2,0.8,0.2c0.3,0,0.5-0.1,0.8-0.2c0.2-0.1,0.4-0.3,0.6-0.6c0.1-0.2,0.2-0.5,0.2-0.8
				c0-0.5-0.1-0.8-0.4-1.1C160.8,49.7,160.5,49.6,160,49.6z M160.3,47.3h0.8l-1.1,1.1h-0.5L160.3,47.3z"/>
			<path class="st4" d="M163.9,49.2h0.5v0.6c0.2-0.2,0.3-0.4,0.5-0.5c0.2-0.1,0.3-0.2,0.5-0.2c0.1,0,0.3,0,0.4,0.1l-0.3,0.4
				c-0.1,0-0.2-0.1-0.3-0.1c-0.2,0-0.3,0.1-0.5,0.2c-0.2,0.1-0.3,0.4-0.4,0.6c-0.1,0.2-0.1,0.7-0.1,1.3v1.3h-0.5V49.2z"/>
			<path class="st4" d="M167.4,47.6c0.1,0,0.2,0,0.3,0.1c0.1,0.1,0.1,0.2,0.1,0.3c0,0.1,0,0.2-0.1,0.3c-0.1,0.1-0.2,0.1-0.3,0.1
				c-0.1,0-0.2,0-0.3-0.1c-0.1-0.1-0.1-0.2-0.1-0.3c0-0.1,0-0.2,0.1-0.3C167.2,47.6,167.3,47.6,167.4,47.6z M167.1,49.2h0.5v3.9
				h-0.5V49.2z"/>
			<path class="st4" d="M171.4,49.1c0.6,0,1.1,0.2,1.5,0.7c0.4,0.4,0.5,0.9,0.5,1.4c0,0.5-0.2,1-0.6,1.4c-0.4,0.4-0.9,0.6-1.5,0.6
				c-0.6,0-1.1-0.2-1.5-0.6c-0.4-0.4-0.6-0.9-0.6-1.4c0-0.5,0.2-1,0.5-1.4C170.3,49.3,170.8,49.1,171.4,49.1z M171.4,49.6
				c-0.4,0-0.8,0.2-1.1,0.5c-0.3,0.3-0.4,0.7-0.4,1.1c0,0.3,0.1,0.5,0.2,0.8c0.1,0.2,0.3,0.4,0.6,0.6c0.2,0.1,0.5,0.2,0.8,0.2
				c0.3,0,0.5-0.1,0.8-0.2c0.2-0.1,0.4-0.3,0.6-0.6c0.1-0.2,0.2-0.5,0.2-0.8c0-0.4-0.2-0.8-0.5-1.1
				C172.2,49.7,171.8,49.6,171.4,49.6z"/>
		</g>
		<line class="st16" x1="74" y1="45.2" x2="178.4" y2="45.2"/>
		<text transform="matrix(1 0 0 1 30.2969 12.5214)" class="st17 st18 st19">.............................................................................</text>
		<text transform="matrix(1 0 0 1 30.2969 12.3866)" class="st17 st18 st19">.............................................................................</text>
		<text transform="matrix(1 0 0 1 30.2969 12.2734)" class="st17 st18 st19">.............................................................................</text>
		<text transform="matrix(1 0 0 1 30.2969 12.6767)" class="st17 st18 st19">.............................................................................</text>
		<text transform="matrix(1 0 0 1 30.2969 12.8329)" class="st17 st18 st19">.............................................................................</text>
		<text transform="matrix(1 0 0 1 30.2969 12.9853)" class="st17 st18 st19">.............................................................................</text>
		<text transform="matrix(1 0 0 1 30.2969 13.1396)" class="st17 st18 st19">.............................................................................</text>
		<text transform="matrix(1 0 0 1 30.2969 13.2919)" class="st17 st18 st19">.............................................................................</text>
		<text transform="matrix(1 0 0 1 30.2969 13.4462)" class="st17 st18 st19">.............................................................................</text>
		<text transform="matrix(1 0 0 1 30.2969 13.5995)" class="st17 st18 st19">.............................................................................</text>
		<text transform="matrix(1 0 0 1 30.2969 13.7538)" class="st17 st18 st19">.............................................................................</text>
		<text transform="matrix(1 0 0 1 30.2969 13.9071)" class="st17 st18 st19">.............................................................................</text>
		<text transform="matrix(1 0 0 1 30.2969 14.0644)" class="st17 st18 st19">.............................................................................</text>
		<text transform="matrix(1 0 0 1 30.2969 14.2177)" class="st17 st18 st19">.............................................................................</text>
		<text transform="matrix(1 0 0 1 30.2969 14.3544)" class="st17 st18 st19">.............................................................................</text>
		<text transform="matrix(1 0 0 1 30.2969 14.4823)" class="st17 st18 st19">.............................................................................</text>
		<g>
			<path class="st4" d="M31.8,14.2v-1.7h0.4c0.3,0,0.5,0,0.6,0.1c0.2,0.1,0.3,0.2,0.4,0.3c0.1,0.1,0.1,0.3,0.1,0.5
				c0,0.2,0,0.3-0.1,0.5c-0.1,0.1-0.2,0.2-0.3,0.3c-0.1,0.1-0.3,0.1-0.5,0.1H31.8z M32,14.1h0.2c0.2,0,0.4,0,0.5,0
				c0.1,0,0.2-0.1,0.3-0.2c0.1-0.1,0.1-0.2,0.1-0.4c0-0.2,0-0.3-0.1-0.4c-0.1-0.1-0.2-0.2-0.3-0.2c-0.1,0-0.3,0-0.5,0H32V14.1z"/>
			<path class="st4" d="M33.9,12.5h1v0.2H34v0.5h0.8v0.2H34V14h0.8v0.2h-1V12.5z"/>
			<path class="st4" d="M35.2,13.9l0.1-0.1c0.1,0.2,0.2,0.3,0.4,0.3c0.1,0,0.1,0,0.2,0c0.1,0,0.1-0.1,0.1-0.1c0,0,0-0.1,0-0.1
				c0-0.1,0-0.1-0.1-0.2c-0.1-0.1-0.2-0.2-0.3-0.3c-0.1-0.1-0.2-0.2-0.3-0.2c-0.1-0.1-0.1-0.2-0.1-0.3c0-0.1,0-0.1,0.1-0.2
				c0-0.1,0.1-0.1,0.2-0.1c0.1,0,0.1-0.1,0.2-0.1c0.1,0,0.2,0,0.2,0.1c0.1,0,0.1,0.1,0.2,0.2l-0.1,0.1c-0.1-0.1-0.1-0.1-0.2-0.2
				c0,0-0.1,0-0.2,0c-0.1,0-0.1,0-0.2,0.1c0,0-0.1,0.1-0.1,0.2c0,0,0,0.1,0,0.1c0,0,0,0.1,0.1,0.1c0,0,0.1,0.1,0.2,0.2
				c0.2,0.1,0.3,0.2,0.3,0.3c0.1,0.1,0.1,0.2,0.1,0.3c0,0.1,0,0.2-0.1,0.3c-0.1,0.1-0.2,0.1-0.4,0.1c-0.1,0-0.2,0-0.3-0.1
				C35.4,14.1,35.3,14,35.2,13.9z"/>
			<path class="st4" d="M36.8,14.2v-1.7h0.4c0.3,0,0.5,0,0.6,0.1c0.2,0.1,0.3,0.2,0.4,0.3c0.1,0.1,0.1,0.3,0.1,0.5
				c0,0.2,0,0.3-0.1,0.5c-0.1,0.1-0.2,0.2-0.3,0.3c-0.1,0.1-0.3,0.1-0.5,0.1H36.8z M37,14.1h0.2c0.2,0,0.4,0,0.5,0
				c0.1,0,0.2-0.1,0.3-0.2c0.1-0.1,0.1-0.2,0.1-0.4c0-0.2,0-0.3-0.1-0.4c-0.1-0.1-0.2-0.2-0.3-0.2c-0.1,0-0.3,0-0.5,0H37V14.1z"/>
			<path class="st4" d="M38.9,12.5h1v0.2h-0.8v0.5h0.8v0.2h-0.8V14h0.8v0.2h-1V12.5z"/>
			<path class="st4" d="M41.6,12.5h0.3v1.7h-0.2v-1.6h-0.3L41.6,12.5z"/>
			<path class="st4" d="M43.1,14.3L43,14.2l0.5-0.7c-0.1,0-0.1,0-0.2,0c-0.1,0-0.3,0-0.4-0.2c-0.1-0.1-0.1-0.2-0.1-0.4
				c0-0.1,0-0.2,0.1-0.3c0-0.1,0.1-0.1,0.2-0.2s0.2-0.1,0.3-0.1c0.1,0,0.2,0,0.3,0.1c0.1,0,0.1,0.1,0.2,0.2c0,0.1,0.1,0.2,0.1,0.3
				c0,0.1,0,0.1,0,0.2s-0.1,0.2-0.2,0.3L43.1,14.3z M43.3,13.3c0.1,0,0.2,0,0.3-0.1c0.1-0.1,0.1-0.2,0.1-0.3c0-0.1,0-0.2-0.1-0.3
				c-0.1-0.1-0.2-0.1-0.3-0.1c-0.1,0-0.2,0-0.3,0.1C43,12.8,43,12.9,43,13c0,0.1,0,0.2,0.1,0.3C43.1,13.3,43.2,13.3,43.3,13.3z"/>
			<path class="st4" d="M44.7,14.3l-0.1-0.1l0.5-0.7c-0.1,0-0.1,0-0.2,0c-0.1,0-0.3,0-0.4-0.2c-0.1-0.1-0.1-0.2-0.1-0.4
				c0-0.1,0-0.2,0.1-0.3c0-0.1,0.1-0.1,0.2-0.2c0.1,0,0.2-0.1,0.3-0.1c0.1,0,0.2,0,0.3,0.1c0.1,0,0.1,0.1,0.2,0.2
				c0,0.1,0.1,0.2,0.1,0.3c0,0.1,0,0.1,0,0.2c0,0.1-0.1,0.2-0.2,0.3L44.7,14.3z M44.9,13.3c0.1,0,0.2,0,0.3-0.1
				c0.1-0.1,0.1-0.2,0.1-0.3c0-0.1,0-0.2-0.1-0.3c-0.1-0.1-0.2-0.1-0.3-0.1c-0.1,0-0.2,0-0.3,0.1c-0.1,0.1-0.1,0.2-0.1,0.3
				c0,0.1,0,0.2,0.1,0.3C44.7,13.3,44.8,13.3,44.9,13.3z"/>
			<path class="st4" d="M46,12.5h1.1l-0.9,1.8L46,14.2l0.8-1.5H46V12.5z"/>
		</g>
		<text transform="matrix(1 0 0 1 48.7646 12.2734)" class="st17 st18 st19">.</text>
		<text transform="matrix(1 0 0 1 48.7646 12.3866)" class="st17 st18 st19">.</text>
		<text transform="matrix(1 0 0 1 48.7646 12.5214)" class="st17 st18 st19">.</text>
		<text transform="matrix(1 0 0 1 48.7646 12.6796)" class="st17 st18 st19">.</text>
		<text transform="matrix(1 0 0 1 48.7646 12.8329)" class="st17 st18 st19">.</text>
		<text transform="matrix(1 0 0 1 48.7646 12.9853)" class="st17 st18 st19">.</text>
		<text transform="matrix(1 0 0 1 48.7646 13.1396)" class="st17 st18 st19">.</text>
		<text transform="matrix(1 0 0 1 48.7646 13.2919)" class="st17 st18 st19">.</text>
		<text transform="matrix(1 0 0 1 48.7646 13.4462)" class="st17 st18 st19">.</text>
		<text transform="matrix(1 0 0 1 48.7646 13.5995)" class="st17 st18 st19">.</text>
		<text transform="matrix(1 0 0 1 48.7646 13.7538)" class="st17 st18 st19">.</text>
		<text transform="matrix(1 0 0 1 48.7646 13.9071)" class="st17 st18 st19">.</text>
		<text transform="matrix(1 0 0 1 48.7646 14.0644)" class="st17 st18 st19">.</text>
		<text transform="matrix(1 0 0 1 48.7646 14.2177)" class="st17 st18 st19">.</text>
		<text transform="matrix(1 0 0 1 48.7646 14.37)" class="st17 st18 st19">.</text>
		<text transform="matrix(1 0 0 1 48.7646 14.4823)" class="st17 st18 st19">.</text>
		<rect x="32.3" y="12.8" class="st10" width="14.7" height="1.8"/>
		<polygon class="st10" points="14.1,35.9 15.7,35.9 15.7,38.3 19.2,40.4 18,41.9 14.1,39.8 		"/>
		<polygon class="st4" points="14.4,36.2 15.4,36.2 15.4,38.5 18.7,40.5 17.9,41.6 14.4,39.7 		"/>
		<polygon class="st10" points="23.9,35.5 25.5,35.5 25.5,37.8 29,39.9 27.8,41.5 23.9,39.4 		"/>
		<polygon class="st10" points="24.2,35.8 25.3,35.8 25.3,38 28.5,40 27.7,41.1 24.2,39.2 		"/>
		<polygon class="st4" points="5.3,41.3 5.3,42.9 7.7,44.3 7.1,45 4.7,43.7 4.7,41.3 		"/>
	</g>
</g>
</svg>
