<?xml version="1.0" encoding="utf-8"?>
<!-- Generator: Adobe Illustrator 22.1.0, SVG Export Plug-In . SVG Version: 6.00 Build 0)  -->
<svg version="1.1" id="Camada_1" xmlns="http://www.w3.org/2000/svg" xmlns:xlink="http://www.w3.org/1999/xlink" x="0px" y="0px"
	 viewBox="0 0 283.9 263.8" style="enable-background:new 0 0 283.9 263.8;" xml:space="preserve">
<style type="text/css">
	.st0{fill-rule:evenodd;clip-rule:evenodd;fill:#CBB025;}
	.st1{fill-rule:evenodd;clip-rule:evenodd;fill:#F2F1F0;}
</style>
<g>
	<path class="st0" d="M9.5,255.9l15.3,0.1l0.1-76.1c3.7,6,10.7,63.5,12.2,75.6l7.2,0.3c1.8-12.3,9.1-70.4,12.1-75.9l0.1,76l15.3,0
		L72,142.1l-20.4,0l-10.8,56.6L30,142.5L9.7,142L9.5,255.9z"/>
	<path class="st0" d="M149,159.1c10.2-0.4,11.1,4.2,11.8,13.9c0.6,8.2,0.4,17.7,0.4,26c0,8.3,0.3,17.8-0.4,26.1
		c-0.8,9.8-1.6,14.4-11.9,13.9L149,159.1z M132.2,255.5c15.2,3.2,34.8-0.3,40.9-10.2c8-13,8.2-79.2,0-92.6
		c-7.5-12.2-29.8-12.3-40.9-10.3V255.5z"/>
	<path class="st0" d="M242.2,176.5l4.9,38.4l-11.1-0.1L242.2,176.5z M214.3,256l16.4-0.1l3.1-23l16.2-0.1l3,23.1L269,256
		l-16.8-113.4c-4.1-1.2-16.6-1.1-20.9-0.1L214.3,256z"/>
	<path class="st0" d="M277.3,79.4l-15.7-0.5c-0.1,6.6,2.9,26.4-7.5,23.7c-6.9-1.8-4.7-20.7-4.7-28.6c0-10.7,0-21.3,0-32
		c0-10.8-3-24.8,9.6-22.1c3.8,6.6,2.4,13.9,2.6,23.2l15.7-0.1c0.1-11.4,1-21.9-4.2-30.4c-4.3-6.9-13.5-12.5-25.5-8.7
		c-19.5,6.1-15,35.3-15,57.1c0,21.7-4.5,50.4,14.2,57c11.7,4.1,21.8-1.3,26-7.9C278.5,101.3,277.4,91.4,277.3,79.4L277.3,79.4z"/>
	<path class="st0" d="M162.9,117.8l16.9,0.3l17.2-114l-16.2,0l-9,67.2c-0.1-0.2-0.3-0.9-0.4-0.8l-5-32.4c-1.5-11.2-3-22.7-4.6-34
		l-16,0L162.9,117.8z"/>
	<path class="st0" d="M107.7,141.9l-23,0.1l-0.1,113.9l38.2,0l0.1-17.1l-21.5-0.1l0-31.1l15.5-0.3v-18.2l-15.5-0.2v-29.4l21.6-0.4
		l-0.1-17.1l-11-0.1l-4-5.5c1.6,0.7,3.4-2.1,2.5,3.4C109.7,143.9,109.9,141.3,107.7,141.9L107.7,141.9z"/>
	<path class="st0" d="M107.7,118.1l2.4,0.5l0.3,5.4c-1.5,1.6-0.1,0.7-2.6,1.4l2.4,0.1l0.6-7.5h30.2l0.1-17.1l-21.3-0.1
		c-0.6-6-1-26.1,0.3-31.4l14.8,0l0-18.2l-15.4,0l0.1-29.9l21.4-0.1L141,4h-38.1l-0.1,114L107.7,118.1z"/>
	<polygon class="st0" points="9.5,117.9 47.6,117.9 47.7,100.9 26.3,100.7 26.2,69.6 41.6,69.3 41.6,51.3 26.1,51 26.1,21.5 
		47.7,21.1 47.7,4.1 9.6,4.1 	"/>
	<polygon class="st0" points="56.9,117.8 95.8,118 95.7,102.5 73.7,102.4 73.6,4.2 57.1,4.1 	"/>
	<polygon class="st0" points="189.7,255.9 206.4,255.9 206.5,142.3 189.8,142 	"/>
	<polygon class="st0" points="204.6,118 221.5,118 221.5,4.3 204.8,4 	"/>
	<path class="st1" d="M114.5,132.2l11.3,0c-1-3.3,1.7-2.6-5-2.7C112,129.3,116,130.4,114.5,132.2L114.5,132.2z"/>
	<path class="st1" d="M92.3,131c2.1,1.4,5.7,1.8,8.4,1.3c4.5-0.7,1.2,0.1,2.9-1.3c-1.4-1.1,0.5-0.6-2.1-1.2c-0.2,0-2.6-0.2-2.9-0.2
		C93.1,129.4,93.6,130.1,92.3,131L92.3,131z"/>
	<path class="st1" d="M107.8,125.4c2.4-0.7,1.1,0.1,2.6-1.4l-0.3-5.4l-2.4-0.5L107.8,125.4z"/>
	<path class="st1" d="M107.7,141.9c2.2-0.6,2,2,2.6-2c0.9-5.5-0.9-2.7-2.5-3.4L107.7,141.9z"/>
</g>
</svg>
