<?xml version="1.0" encoding="utf-8"?>
<!-- Generator: Adobe Illustrator 22.1.0, SVG Export Plug-In . SVG Version: 6.00 Build 0)  -->
<svg version="1.1" id="Camada_1" xmlns="http://www.w3.org/2000/svg" xmlns:xlink="http://www.w3.org/1999/xlink" x="0px" y="0px"
	 viewBox="0 0 283.9 263.8" style="enable-background:new 0 0 283.9 263.8;" xml:space="preserve">
<style type="text/css">
	.st0{fill:#DEA02B;}
	.st1{fill:#21559C;}
</style>
<g>
	<g>
		<g>
			<path class="st0" d="M3.2,40.4C2.4,38.5,2,36.6,2,34.5c0-2.2,0.5-4.2,1.4-5.9c0.9-1.8,2.2-3.3,3.6-4.6c1.5-1.3,3.2-2.3,5.2-3
				c2-0.7,4-1.1,6.1-1.1c2.5,0,5,0.8,7.6,2.4c2.6,1.6,4.6,4.1,5.9,7.6l19,48.9L70,29.7c1.4-3.5,3.2-6,5.6-7.6c2.3-1.6,5-2.4,7.9-2.4
				c2.1,0,4.1,0.4,6,1.1c1.9,0.7,3.7,1.8,5.2,3c1.5,1.3,2.7,2.8,3.6,4.6c0.9,1.8,1.3,3.8,1.3,5.9c0,1-0.1,2-0.2,3
				c-0.1,1-0.4,2-0.8,2.9l-33,79.9c-2.8,6.8-7.5,10.2-14.1,10.2c-6.5,0-11.7-3.4-15.4-10.2L3.2,40.4z"/>
			<path class="st0" d="M155.1,115.6h-38.9l-2.2,5.3c-2.8,6.6-7.2,9.9-13.2,9.9c-2.1,0-4.1-0.3-6.1-1c-2-0.7-3.7-1.7-5.3-3
				c-1.5-1.3-2.8-2.8-3.7-4.6c-0.9-1.8-1.4-3.8-1.4-5.9c0.1-0.9,0.2-1.9,0.2-2.9c0-1,0.3-2.1,0.8-3.2l33.6-80.5
				c1.3-3.5,3.1-6,5.6-7.6c2.4-1.6,5.1-2.4,7.9-2.4c2.1,0,4.1,0.4,6,1.1c1.9,0.7,3.7,1.8,5.2,3c1.5,1.3,2.7,2.8,3.6,4.6
				c0.9,1.8,1.3,3.8,1.3,5.9c0,1-0.1,2-0.2,3c-0.1,1-0.4,2-0.8,2.9l-19.9,47.5h15l-1.8-4c-0.5-1-0.8-2-1-3c-0.1-1-0.2-2-0.2-3
				c0-2.2,0.5-4.2,1.4-5.9c0.9-1.8,2.2-3.3,3.6-4.7c1.5-1.3,3.2-2.4,5.2-3.1c2-0.7,4-1.1,6.1-1.1c2.9,0,5.5,0.8,7.9,2.5
				c2.4,1.6,4.3,4.2,5.6,7.6l16.6,37c0.8,2.4,1.2,4.4,1.2,6.1c0,2.2-0.5,4.2-1.4,5.9c-0.9,1.8-2.2,3.3-3.7,4.6
				c-1.5,1.3-3.3,2.3-5.3,3c-2,0.7-4,1-6.1,1c-2.9,0-5.5-0.8-7.8-2.4c-2.3-1.6-4.2-4.1-5.6-7.6L155.1,115.6z"/>
			<path class="st0" d="M255.8,123.9l-26.6-40.1v31.5c0,5-1.5,8.7-4.5,11.3c-3,2.6-6.6,3.9-10.8,3.9c-2.1,0-4-0.3-5.9-1
				c-1.8-0.6-3.4-1.6-4.8-2.9c-1.4-1.3-2.5-2.9-3.3-4.8c-0.8-1.9-1.2-4.1-1.2-6.5v-80c0-4.8,1.5-8.6,4.5-11.2
				c3-2.6,6.6-3.9,10.6-3.9c3,0,5.5,0.5,7.5,1.6c2,1,3.7,2.8,5,5.3l27.6,42V35.2c0-2.5,0.4-4.7,1.3-6.5c0.8-1.9,2-3.5,3.3-4.8
				c1.4-1.3,3-2.3,4.8-2.9c1.8-0.6,3.8-1,5.9-1c4.2,0,7.7,1.3,10.8,3.9c3,2.6,4.5,6.3,4.5,11.3v80c0,5-1.5,8.7-4.5,11.3
				c-3,2.6-6.6,3.9-10.8,3.9c-2.1,0-3.9-0.3-5.3-0.8c-1.5-0.5-2.7-1.2-3.8-1.9c-1-0.7-1.9-1.4-2.5-2.2c-0.6-0.7-1.2-1.4-1.6-1.9
				L255.8,123.9z"/>
		</g>
	</g>
	<g>
		<g>
			<path class="st1" d="M199.4,180.2c0,6.6-1.3,12.8-3.8,18.6c-2.5,5.8-5.9,10.8-10.3,15.1c-4.3,4.3-9.4,7.7-15.2,10.1
				c-5.8,2.5-12,3.7-18.6,3.7c-6.6,0-12.8-1.2-18.5-3.7c-5.8-2.5-10.8-5.8-15.1-10.1c-4.3-4.3-7.7-9.3-10.2-15.1
				c-2.5-5.8-3.8-12-3.8-18.6c0-6.6,1.3-12.8,3.8-18.6c2.5-5.8,5.9-10.8,10.2-15.1c4.3-4.3,9.3-7.7,15.1-10.2
				c5.8-2.5,11.9-3.8,18.5-3.8c6.6,0,12.8,1.3,18.6,3.8c5.8,2.5,10.9,5.9,15.2,10.2c4.3,4.3,7.8,9.3,10.3,15.1
				C198.2,167.5,199.4,173.7,199.4,180.2z M173.5,180.5c0-3-0.6-5.8-1.7-8.4c-1.1-2.6-2.7-4.9-4.6-6.9c-2-2-4.3-3.5-6.9-4.6
				c-2.6-1.1-5.4-1.7-8.4-1.7c-3,0-5.8,0.6-8.4,1.7c-2.6,1.1-4.9,2.7-6.8,4.6c-1.9,2-3.4,4.3-4.6,6.9c-1.1,2.6-1.7,5.4-1.7,8.4
				c0,3,0.6,5.8,1.7,8.4c1.1,2.6,2.6,4.9,4.6,6.8c1.9,1.9,4.2,3.4,6.8,4.6c2.6,1.1,5.4,1.7,8.4,1.7c3,0,5.8-0.6,8.4-1.7
				c2.6-1.1,4.9-2.6,6.9-4.6c2-1.9,3.5-4.2,4.6-6.8C173,186.3,173.5,183.5,173.5,180.5z"/>
			<path class="st1" d="M222.2,227.1c-8.3,0-12.4-4.2-12.4-12.5c0-8.9,4.2-13.4,12.5-13.4h34.5c3.4,0,5.1-1.3,5.1-3.9
				c0-2.6-1.7-3.9-5.1-3.9h-21c-18.3-0.5-27.4-10.4-27.4-29.8c0-19.8,9.8-29.8,29.3-29.8h28.4c8.2,0,12.3,4.2,12.3,12.5
				c0,8.9-4.1,13.4-12.4,13.4h-30c-3.4,0-5.1,1.3-5.1,3.9c0,2.6,1.7,3.9,5.1,3.9h21.1c18.3,0.5,27.4,10.4,27.4,29.8
				c0,19.8-9.7,29.8-29,29.8H222.2z"/>
		</g>
	</g>
	<path class="st1" d="M90.4,133.7c-2.7-2.3-5.8-3.5-9.4-3.5c-2.6,0-4.8,0.5-6.6,1.4c-1.8,0.9-3.3,2.5-4.4,4.7l-21.7,33l-21.7-33
		c-1.1-2.2-2.6-3.7-4.4-4.7c-1.8-0.9-4-1.4-6.6-1.4c-3.6,0-6.7,1.2-9.4,3.5c-2.7,2.3-4,5.6-4,9.9v70.7c0,2.2,0.3,4.1,1,5.8
		c0.7,1.7,1.7,3.1,2.9,4.2c1.2,1.1,2.6,2,4.3,2.6c1.6,0.6,3.3,0.9,5.2,0.9c3.7,0,6.8-1.1,9.5-3.4c2.7-2.3,4-5.6,4-10v-27.6l8.9,17.4
		c2.7,3.9,6.3,5.8,10.9,5.8c4.7,0,8-1.9,10-5.8l8.6-16.8v27c0,4.4,1.3,7.7,4,10c2.7,2.3,5.8,3.4,9.5,3.4c1.8,0,3.6-0.3,5.2-0.9
		c1.6-0.6,3-1.4,4.3-2.6c1.2-1.1,2.2-2.5,2.9-4.2c0.7-1.7,1-3.6,1-5.8v-70.7C94.4,139.3,93,136,90.4,133.7z"/>
</g>
</svg>
